<?xml version="1.0" encoding="utf-8"?>
<!-- Generator: Adobe Illustrator 16.0.0, SVG Export Plug-In . SVG Version: 6.00 Build 0)  -->
<!DOCTYPE svg PUBLIC "-//W3C//DTD SVG 1.1//EN" "http://www.w3.org/Graphics/SVG/1.1/DTD/svg11.dtd">
<svg version="1.1" id="icons" xmlns="http://www.w3.org/2000/svg" x="0px" y="0px"
     width="64px" height="64px" viewBox="0 0 64 64" enable-background="new 0 0 64 64" xml:space="preserve">
<g>
	<path fill="#656D78" d="M15,5.501h-5c-0.553,0-1-0.447-1-1s0.447-1,1-1h5c0.553,0,1,0.447,1,1S15.553,5.501,15,5.501z"/>
	<path fill="#656D78" d="M47.994,5.501h-5c-0.553,0-1-0.447-1-1s0.447-1,1-1h5c0.553,0,1,0.447,1,1S48.547,5.501,47.994,5.501z"/>
	<path fill="#48CFAD" d="M2,40.5c0,0.551,0.45,1,1,1h51.99c0.55,0,1-0.449,1-1v-35c0-0.549-0.45-1-1-1H3c-0.55,0-1,0.451-1,1V40.5z"
		/>
	<path fill="#965353" d="M42,37.529V34.5c0-4.42,3.58-8,8-8h5.99H56v4c2.21,0,4,1.79,4,4v3.029L57,35.5c0,0-2.01,1-5.5,1
		s-6.5-1-6.5-1L42,37.529z"/>
	<path fill="#844747" d="M60,37.529V34.5c0-2.21-1.79-4-4-4v-4h-0.01H53v4c0,1.657,1.343,3,3,3c0.552,0,1,0.447,1,1v1L60,37.529z"/>
	<path fill="#F5F7FA" d="M51,49.5c1.43,0,2.8-0.34,4-0.941v0.012v2.928l-2,1l-2-1l-2,1l-2-1V48.57v-0.012
		C48.2,49.16,49.57,49.5,51,49.5z"/>
	<path fill="#E6E9ED" d="M18,37.5c0.55,0,1,0.449,1,1v1c0,0.549-0.45,1-1,1H9c-0.55,0-1-0.451-1-1v-1c0-0.551,0.45-1,1-1H18z"/>
	<path fill="#FFD2A6" d="M43.002,40.5c0.55,0,1,0.002,1,0.004c0,0.004,0,0.014,0,0.025s0.04,0.469,0.088,1.016
		c0,0,0.026,0.467,0.167,0.994c0.141,0.529-0.195,0.961-0.745,0.961H2c-0.55,0-1-0.451-1-1v-1c0-0.551,0.45-1,1-1h5
		c0.55,0,1.45,0,2,0h9c0.55,0,1.45,0,2,0H43.002z"/>
	<path fill="#656D78" d="M63,56.498v4H51l4-9h3C60.76,51.498,63,53.738,63,56.498z"/>
	<path fill="#545C66" d="M58,51.498h-3l0,0c2.758,0.002,4.997,2.242,4.997,5v4H63v-4C63,53.738,60.76,51.498,58,51.498z"/>
	<polygon fill="#E6E9ED" points="53,52.498 55,51.498 51,60.498 47,51.498 49,52.498 51,51.498 	"/>
	<path fill="#EAC6BB" d="M60,37.529v2.98c0,3.529-2.04,6.58-5,8.049c-1.2,0.602-2.57,0.941-4,0.941s-2.8-0.34-4-0.941
		c-2.08-1.029-3.71-2.84-4.49-5.059C42.18,42.58,42,41.58,42,40.549V40.51V40.5v-2.971l3-2.029c0,0,3.01,1,6.5,1s5.5-1,5.5-1
		L60,37.529z"/>
	<path fill="#D3B1A9" d="M57,35.5h-0.003v5.01c0,3.529-2.04,6.58-5,8.049c-0.771,0.387-1.616,0.65-2.499,0.801
		C49.989,49.441,50.488,49.5,51,49.5c1.43,0,2.8-0.34,4-0.941c2.96-1.469,5-4.52,5-8.049v-2.98L57,35.5z"/>
	<path fill="#656D78" d="M47,51.498l4,9H39v-4c0-2.76,2.24-5,5-5H47z"/>
	<path fill="#E6E9ED" d="M18,30.5c-2.671,0-5.183-1.041-7.07-2.93c-1.889-1.889-2.929-4.4-2.929-7.071s1.04-5.183,2.929-7.07
		c1.889-1.89,4.399-2.929,7.07-2.929c2.672,0,5.183,1.039,7.071,2.929C26.96,15.316,28,17.828,28,20.499s-1.04,5.183-2.929,7.071
		S20.671,30.5,18,30.5z M18,12.5c-2.137,0-4.146,0.832-5.656,2.343s-2.343,3.52-2.343,5.656c0,2.138,0.832,4.146,2.343,5.657
		C13.854,27.667,15.863,28.5,18,28.5s4.146-0.833,5.657-2.344C25.168,24.644,26,22.636,26,20.499c0-2.137-0.832-4.146-2.343-5.656
		S20.138,12.5,18,12.5z"/>
	<path fill="#E6E9ED" d="M9.516,29.983c-0.256,0-0.512-0.098-0.707-0.293c-0.391-0.391-0.391-1.023,0-1.414l16.97-16.97
		c0.391-0.391,1.023-0.391,1.414,0s0.391,1.023,0,1.414l-16.97,16.97C10.027,29.885,9.771,29.983,9.516,29.983z"/>
	<path fill="#E6E9ED" d="M49.998,17.499H32c-0.553,0-1-0.448-1-1s0.447-1,1-1h17.998c0.553,0,1,0.448,1,1
		S50.551,17.499,49.998,17.499z"/>
	<path fill="#E6E9ED" d="M49.998,20.499H32c-0.553,0-1-0.448-1-1s0.447-1,1-1h17.998c0.553,0,1,0.448,1,1
		S50.551,20.499,49.998,20.499z"/>
	<path fill="#E6E9ED" d="M49.998,23.499H32c-0.553,0-1-0.448-1-1s0.447-1,1-1h17.998c0.553,0,1,0.448,1,1
		S50.551,23.499,49.998,23.499z"/>
	<path fill="#E6E9ED" d="M40,26.499h-8c-0.553,0-1-0.448-1-1s0.447-1,1-1h8c0.553,0,1,0.448,1,1S40.553,26.499,40,26.499z"/>
</g>
</svg>
