<?xml version="1.0" encoding="utf-8"?>
<!-- Generator: Adobe Illustrator 16.0.0, SVG Export Plug-In . SVG Version: 6.00 Build 0)  -->
<!DOCTYPE svg PUBLIC "-//W3C//DTD SVG 1.1//EN" "http://www.w3.org/Graphics/SVG/1.1/DTD/svg11.dtd">
<svg version="1.1" id="icons" xmlns="http://www.w3.org/2000/svg" x="0px" y="0px"
     width="64px" height="64px" viewBox="0 0 64 64" enable-background="new 0 0 64 64" xml:space="preserve">
<g>
	<path fill="#CCD1D9" d="M50.994,57v3h3v-3H50.994z M53.994,54v-9h-3v9H53.994z M23.994,54v-3h-3v3H23.994z M23.994,48v-3h-3v3
		H23.994z M26.994,54h3v-3h-3V54z M29.994,48v-3h-3v3H29.994z M32.994,54h3v-3h-3V54z M35.994,48v-3h-3v3H35.994z M41.994,57h-21v3
		h21V57z M41.994,54v-3h-3v3H41.994z M41.994,48v-3h-3v3H41.994z M44.994,57v3h3v-3H44.994z M47.994,48v-3h-3v3H47.994z M47.994,54
		v-3h-3v3H47.994z M8.994,57v3h3v-3H8.994z M11.994,48v-3h-3v3H11.994z M17.994,51h-9v3h9V51z M14.994,48h3v-3h-3V48z M14.994,57v3
		h3v-3H14.994z M57.994,43.01V62c0,1.1-0.9,2-2,2H7.004c-1.1,0-2-0.9-2-2V43.01c0-1.1,0.9-2,2-2h48.99
		C57.094,41.01,57.994,41.91,57.994,43.01z"/>
	<path fill="#CCD1D9" d="M55.994,14.993H51c-0.553,0-1,0.447-1,1s0.447,1,1,1h4.994c0.553,0,1.002,0.449,1.002,1.002V33.98
		c0,0.553-0.449,1.002-1.002,1.002H34.5c-2.207,0-4,1.794-4,4c0,0.553,0.447,1,1,1s1-0.447,1-1c0-1.103,0.896-2,2-2h21.494
		c1.654,0,3.002-1.347,3.002-3.002V17.995C58.996,16.34,57.648,14.993,55.994,14.993z"/>
	<path fill="#E6E9ED" d="M50.994,54.98v3h3v-3H50.994z M53.994,51.98v-9h-3v9H53.994z M23.994,51.98v-3h-3v3H23.994z M23.994,45.98
		v-3h-3v3H23.994z M26.994,51.98h3v-3h-3V51.98z M29.994,45.98v-3h-3v3H29.994z M32.994,51.98h3v-3h-3V51.98z M35.994,45.98v-3h-3v3
		H35.994z M41.994,54.98h-21v3h21V54.98z M41.994,51.98v-3h-3v3H41.994z M41.994,45.98v-3h-3v3H41.994z M44.994,54.98v3h3v-3H44.994
		z M47.994,45.98v-3h-3v3H47.994z M47.994,51.98v-3h-3v3H47.994z M8.994,54.98v3h3v-3H8.994z M11.994,45.98v-3h-3v3H11.994z
		 M17.994,48.98h-9v3h9V48.98z M14.994,45.98h3v-3h-3V45.98z M14.994,54.98v3h3v-3H14.994z M57.994,40.99v18.99c0,1.1-0.9,2-2,2
		H7.004c-1.1,0-2-0.9-2-2V40.99c0-1.1,0.9-2,2-2h48.99C57.094,38.99,57.994,39.891,57.994,40.99z"/>
	<polygon fill="#545C66" points="15.994,4 15.994,31.98 14.002,31.98 12.994,30.99 12.994,4 	"/>
	<path fill="#AAB2BD" d="M50.984,4h-34.99h-3V2c0-1.109,0.891-2,2-2h33.99c1.109,0,2,0.891,2,2V4z"/>
	<polygon fill="#656D78" points="50.984,4 50.984,30.99 49.996,31.98 15.994,31.98 15.994,4 	"/>
	<g>
		<path fill="#CCD1D9" d="M9.002,47.985h3c0.553,0,1-0.447,1-1v-3c0-0.553-0.447-1-1-1h-3c-0.553,0-1,0.447-1,1v3
			C8.002,47.538,8.449,47.985,9.002,47.985z"/>
		<path fill="#CCD1D9" d="M18.002,42.985h-3c-0.553,0-1,0.447-1,1v3c0,0.553,0.447,1,1,1h3c0.553,0,1-0.447,1-1v-3
			C19.002,43.433,18.555,42.985,18.002,42.985z"/>
		<path fill="#CCD1D9" d="M21,47.985h3c0.553,0,1-0.447,1-1v-3c0-0.553-0.447-1-1-1h-3c-0.553,0-1,0.447-1,1v3
			C20,47.538,20.447,47.985,21,47.985z"/>
		<path fill="#CCD1D9" d="M27,47.985h3c0.553,0,1-0.447,1-1v-3c0-0.553-0.447-1-1-1h-3c-0.553,0-1,0.447-1,1v3
			C26,47.538,26.447,47.985,27,47.985z"/>
		<path fill="#CCD1D9" d="M32.998,47.985h3c0.553,0,1-0.447,1-1v-3c0-0.553-0.447-1-1-1h-3c-0.553,0-1,0.447-1,1v3
			C31.998,47.538,32.445,47.985,32.998,47.985z"/>
		<path fill="#CCD1D9" d="M41.998,42.985h-3c-0.553,0-1,0.447-1,1v3c0,0.553,0.447,1,1,1h3c0.553,0,1-0.447,1-1v-3
			C42.998,43.433,42.551,42.985,41.998,42.985z"/>
		<path fill="#CCD1D9" d="M47.996,42.985h-3c-0.553,0-1,0.447-1,1v3c0,0.553,0.447,1,1,1h3c0.553,0,1-0.447,1-1v-3
			C48.996,43.433,48.549,42.985,47.996,42.985z"/>
		<path fill="#CCD1D9" d="M18.002,48.984h-9c-0.553,0-1,0.447-1,1v3c0,0.553,0.447,1,1,1h9c0.553,0,1-0.447,1-1v-3
			C19.002,49.432,18.555,48.984,18.002,48.984z"/>
		<path fill="#CCD1D9" d="M21,53.984h3c0.553,0,1-0.447,1-1v-3c0-0.553-0.447-1-1-1h-3c-0.553,0-1,0.447-1,1v3
			C20,53.537,20.447,53.984,21,53.984z"/>
		<path fill="#CCD1D9" d="M27,53.984h3c0.553,0,1-0.447,1-1v-3c0-0.553-0.447-1-1-1h-3c-0.553,0-1,0.447-1,1v3
			C26,53.537,26.447,53.984,27,53.984z"/>
		<path fill="#CCD1D9" d="M32.998,53.984h3c0.553,0,1-0.447,1-1v-3c0-0.553-0.447-1-1-1h-3c-0.553,0-1,0.447-1,1v3
			C31.998,53.537,32.445,53.984,32.998,53.984z"/>
		<path fill="#CCD1D9" d="M41.998,48.984h-3c-0.553,0-1,0.447-1,1v3c0,0.553,0.447,1,1,1h3c0.553,0,1-0.447,1-1v-3
			C42.998,49.432,42.551,48.984,41.998,48.984z"/>
		<path fill="#CCD1D9" d="M47.996,48.984h-3c-0.553,0-1,0.447-1,1v3c0,0.553,0.447,1,1,1h3c0.553,0,1-0.447,1-1v-3
			C48.996,49.432,48.549,48.984,47.996,48.984z"/>
		<path fill="#CCD1D9" d="M53.996,42.985h-3c-0.553,0-1,0.447-1,1v8.999c0,0.553,0.447,1,1,1h3c0.553,0,1-0.447,1-1v-8.999
			C54.996,43.433,54.549,42.985,53.996,42.985z"/>
		<path fill="#CCD1D9" d="M12.002,54.983h-3c-0.553,0-1,0.447-1,1v3c0,0.553,0.447,1,1,1h3c0.553,0,1-0.447,1-1v-3
			C13.002,55.431,12.555,54.983,12.002,54.983z"/>
		<path fill="#CCD1D9" d="M18.002,54.983h-3c-0.553,0-1,0.447-1,1v3c0,0.553,0.447,1,1,1h3c0.553,0,1-0.447,1-1v-3
			C19.002,55.431,18.555,54.983,18.002,54.983z"/>
		<path fill="#CCD1D9" d="M41.998,54.983H21c-0.553,0-1,0.447-1,1v3c0,0.553,0.447,1,1,1h20.998c0.553,0,1-0.447,1-1v-3
			C42.998,55.431,42.551,54.983,41.998,54.983z"/>
		<path fill="#CCD1D9" d="M47.996,54.983h-3c-0.553,0-1,0.447-1,1v3c0,0.553,0.447,1,1,1h3c0.553,0,1-0.447,1-1v-3
			C48.996,55.431,48.549,54.983,47.996,54.983z"/>
		<path fill="#CCD1D9" d="M53.996,54.983h-3c-0.553,0-1,0.447-1,1v3c0,0.553,0.447,1,1,1h3c0.553,0,1-0.447,1-1v-3
			C54.996,55.431,54.549,54.983,53.996,54.983z"/>
	</g>
	<g>
		<path fill="#FFFFFF" d="M9.002,46.984h3c0.553,0,1-0.447,1-1v-3c0-0.553-0.447-1-1-1h-3c-0.553,0-1,0.447-1,1v3
			C8.002,46.537,8.449,46.984,9.002,46.984z"/>
		<path fill="#FFFFFF" d="M18.002,41.984h-3c-0.553,0-1,0.447-1,1v3c0,0.553,0.447,1,1,1h3c0.553,0,1-0.447,1-1v-3
			C19.002,42.432,18.555,41.984,18.002,41.984z"/>
		<path fill="#FFFFFF" d="M21,46.984h3c0.553,0,1-0.447,1-1v-3c0-0.553-0.447-1-1-1h-3c-0.553,0-1,0.447-1,1v3
			C20,46.537,20.447,46.984,21,46.984z"/>
		<path fill="#FFFFFF" d="M27,46.984h3c0.553,0,1-0.447,1-1v-3c0-0.553-0.447-1-1-1h-3c-0.553,0-1,0.447-1,1v3
			C26,46.537,26.447,46.984,27,46.984z"/>
		<path fill="#FFFFFF" d="M32.998,46.984h3c0.553,0,1-0.447,1-1v-3c0-0.553-0.447-1-1-1h-3c-0.553,0-1,0.447-1,1v3
			C31.998,46.537,32.445,46.984,32.998,46.984z"/>
		<path fill="#FFFFFF" d="M41.998,41.984h-3c-0.553,0-1,0.447-1,1v3c0,0.553,0.447,1,1,1h3c0.553,0,1-0.447,1-1v-3
			C42.998,42.432,42.551,41.984,41.998,41.984z"/>
		<path fill="#FFFFFF" d="M47.996,41.984h-3c-0.553,0-1,0.447-1,1v3c0,0.553,0.447,1,1,1h3c0.553,0,1-0.447,1-1v-3
			C48.996,42.432,48.549,41.984,47.996,41.984z"/>
		<path fill="#FFFFFF" d="M18.002,47.983h-9c-0.553,0-1,0.447-1,1v3c0,0.553,0.447,1,1,1h9c0.553,0,1-0.447,1-1v-3
			C19.002,48.431,18.555,47.983,18.002,47.983z"/>
		<path fill="#FFFFFF" d="M21,52.983h3c0.553,0,1-0.447,1-1v-3c0-0.553-0.447-1-1-1h-3c-0.553,0-1,0.447-1,1v3
			C20,52.536,20.447,52.983,21,52.983z"/>
		<path fill="#FFFFFF" d="M27,52.983h3c0.553,0,1-0.447,1-1v-3c0-0.553-0.447-1-1-1h-3c-0.553,0-1,0.447-1,1v3
			C26,52.536,26.447,52.983,27,52.983z"/>
		<path fill="#FFFFFF" d="M32.998,52.983h3c0.553,0,1-0.447,1-1v-3c0-0.553-0.447-1-1-1h-3c-0.553,0-1,0.447-1,1v3
			C31.998,52.536,32.445,52.983,32.998,52.983z"/>
		<path fill="#FFFFFF" d="M41.998,47.983h-3c-0.553,0-1,0.447-1,1v3c0,0.553,0.447,1,1,1h3c0.553,0,1-0.447,1-1v-3
			C42.998,48.431,42.551,47.983,41.998,47.983z"/>
		<path fill="#FFFFFF" d="M47.996,47.983h-3c-0.553,0-1,0.447-1,1v3c0,0.553,0.447,1,1,1h3c0.553,0,1-0.447,1-1v-3
			C48.996,48.431,48.549,47.983,47.996,47.983z"/>
		<path fill="#FFFFFF" d="M53.996,41.984h-3c-0.553,0-1,0.447-1,1v8.999c0,0.553,0.447,1,1,1h3c0.553,0,1-0.447,1-1v-8.999
			C54.996,42.432,54.549,41.984,53.996,41.984z"/>
		<path fill="#FFFFFF" d="M12.002,53.982h-3c-0.553,0-1,0.447-1,1v3c0,0.553,0.447,1,1,1h3c0.553,0,1-0.447,1-1v-3
			C13.002,54.43,12.555,53.982,12.002,53.982z"/>
		<path fill="#FFFFFF" d="M18.002,53.982h-3c-0.553,0-1,0.447-1,1v3c0,0.553,0.447,1,1,1h3c0.553,0,1-0.447,1-1v-3
			C19.002,54.43,18.555,53.982,18.002,53.982z"/>
		<path fill="#FFFFFF" d="M41.998,53.982H21c-0.553,0-1,0.447-1,1v3c0,0.553,0.447,1,1,1h20.998c0.553,0,1-0.447,1-1v-3
			C42.998,54.43,42.551,53.982,41.998,53.982z"/>
		<path fill="#FFFFFF" d="M47.996,53.982h-3c-0.553,0-1,0.447-1,1v3c0,0.553,0.447,1,1,1h3c0.553,0,1-0.447,1-1v-3
			C48.996,54.43,48.549,53.982,47.996,53.982z"/>
		<path fill="#FFFFFF" d="M53.996,53.982h-3c-0.553,0-1,0.447-1,1v3c0,0.553,0.447,1,1,1h3c0.553,0,1-0.447,1-1v-3
			C54.996,54.43,54.549,53.982,53.996,53.982z"/>
	</g>
	<g>
		<path fill="#CCD1D9" d="M16.025,2.999c-0.553,0-1.004-0.447-1.004-1s0.441-1,0.994-1h0.01c0.553,0,1,0.447,1,1
			S16.578,2.999,16.025,2.999z"/>
	</g>
	<g>
		<path fill="#CCD1D9" d="M19.025,2.999c-0.553,0-1.004-0.447-1.004-1s0.441-1,0.994-1h0.01c0.553,0,1,0.447,1,1
			S19.578,2.999,19.025,2.999z"/>
	</g>
	<g>
		<path fill="#CCD1D9" d="M22.025,2.999c-0.553,0-1.004-0.447-1.004-1s0.441-1,0.994-1h0.01c0.553,0,1,0.447,1,1
			S22.578,2.999,22.025,2.999z"/>
	</g>
	<g>
		<path fill="#5D9CEC" d="M40,8.999H19.996c-0.553,0-1-0.447-1-1s0.447-1,1-1H40c0.553,0,1,0.447,1,1S40.553,8.999,40,8.999z"/>
	</g>
	<g>
		<path fill="#A0D468" d="M36,12.999H21.996c-0.553,0-1-0.447-1-1s0.447-1,1-1H36c0.553,0,1,0.447,1,1S36.553,12.999,36,12.999z"/>
	</g>
	<g>
		<path fill="#A0D468" d="M35,24.996H21.996c-0.553,0-1-0.447-1-1s0.447-1,1-1H35c0.553,0,1,0.447,1,1S35.553,24.996,35,24.996z"/>
	</g>
	<g>
		<path fill="#A0D468" d="M42,12.999h-2c-0.553,0-1-0.447-1-1s0.447-1,1-1h2c0.553,0,1,0.447,1,1S42.553,12.999,42,12.999z"/>
	</g>
	<g>
		<path fill="#5D9CEC" d="M25.996,28.982h-6c-0.553,0-1-0.447-1-1s0.447-1,1-1h6c0.553,0,1,0.447,1,1S26.549,28.982,25.996,28.982z"
			/>
	</g>
	<g>
		<path fill="#ED5565" d="M44,20.995H23.996c-0.553,0-1-0.447-1-1s0.447-1,1-1H44c0.553,0,1,0.447,1,1S44.553,20.995,44,20.995z"/>
	</g>
	<g>
		<path fill="#ED5565" d="M29.986,16.993h-5.99c-0.553,0-1-0.447-1-1s0.447-1,1-1h5.99c0.553,0,1,0.447,1,1
			S30.539,16.993,29.986,16.993z"/>
	</g>
	<circle fill="#545C66" cx="14.002" cy="30.99" r="1"/>
	<circle fill="#656D78" cx="49.996" cy="30.99" r="1"/>
</g>
</svg>
