<?xml version="1.0" encoding="utf-8"?>
<!-- Generator: Adobe Illustrator 16.0.0, SVG Export Plug-In . SVG Version: 6.00 Build 0)  -->
<!DOCTYPE svg PUBLIC "-//W3C//DTD SVG 1.1//EN" "http://www.w3.org/Graphics/SVG/1.1/DTD/svg11.dtd">
<svg version="1.1" id="icons" xmlns="http://www.w3.org/2000/svg" x="0px" y="0px"
     width="64px" height="64px" viewBox="0 0 64 64" enable-background="new 0 0 64 64" xml:space="preserve">
<g>
	<path fill="#5D9CEC" d="M59.995,61.999c0,0.55-0.45,1-1,1H5.005c-0.55,0-1-0.45-1-1v-23.99c0-0.55,0.45-1,1-1h53.99
		c0.55,0,1,0.45,1,1V61.999z"/>
	<path fill="#E6E9ED" d="M35.995,59c-2.21,0-4,1.79-4,4V37.01c0-2.22,1.79-4.01,4-4.01h21v4.01V59H35.995z"/>
	<path fill="#F5F7FA" d="M31.995,37.01V63c0-2.21-1.78-4-4-4H7.005V37.01V33h20.99C30.215,33,31.995,34.79,31.995,37.01z"/>
	<path fill="#5D9CEC" d="M45.995,15c0,6.99-5.12,12.76-11.81,13.81L31.995,31l-2.18-2.19c-6.69-1.05-11.82-6.819-11.82-13.81
		c0-7.73,6.27-14,14-14C39.735,1,45.995,7.27,45.995,15z"/>
	<g>
		<g>
			<path fill="#CCD1D9" d="M21,39.006h-8.998c-0.553,0-1-0.447-1-1s0.447-1,1-1H21c0.553,0,1,0.447,1,1S21.553,39.006,21,39.006z"/>
		</g>
		<g>
			<path fill="#CCD1D9" d="M19.002,47.01h-7c-0.553,0-1-0.447-1-1s0.447-1,1-1h7c0.553,0,1,0.447,1,1S19.555,47.01,19.002,47.01z"/>
		</g>
		<g>
			<path fill="#CCD1D9" d="M27,47.01h-3.998c-0.553,0-1-0.447-1-1s0.447-1,1-1H27c0.553,0,1,0.447,1,1S27.553,47.01,27,47.01z"/>
		</g>
		<g>
			<path fill="#CCD1D9" d="M27,43.008H16.002c-0.553,0-1-0.447-1-1s0.447-1,1-1H27c0.553,0,1,0.447,1,1S27.553,43.008,27,43.008z"/>
		</g>
		<g>
			<path fill="#CCD1D9" d="M13.002,43.008h-1c-0.553,0-1-0.447-1-1s0.447-1,1-1h1c0.553,0,1,0.447,1,1S13.555,43.008,13.002,43.008z
				"/>
		</g>
		<g>
			<path fill="#CCD1D9" d="M27,39.006h-2c-0.553,0-1-0.447-1-1s0.447-1,1-1h2c0.553,0,1,0.447,1,1S27.553,39.006,27,39.006z"/>
		</g>
		<g>
			<path fill="#CCD1D9" d="M22,51.012h-9.998c-0.553,0-1-0.447-1-1s0.447-1,1-1H22c0.553,0,1,0.447,1,1S22.553,51.012,22,51.012z"/>
		</g>
		<g>
			<path fill="#CCD1D9" d="M27,51.012h-1c-0.553,0-1-0.447-1-1s0.447-1,1-1h1c0.553,0,1,0.447,1,1S27.553,51.012,27,51.012z"/>
		</g>
		<g>
			<path fill="#CCD1D9" d="M16.002,55.014h-4c-0.553,0-1-0.447-1-1s0.447-1,1-1h4c0.553,0,1,0.447,1,1S16.555,55.014,16.002,55.014z
				"/>
		</g>
		<g>
			<path fill="#CCD1D9" d="M27,55.014h-6.998c-0.553,0-1-0.447-1-1s0.447-1,1-1H27c0.553,0,1,0.447,1,1S27.553,55.014,27,55.014z"/>
		</g>
	</g>
	<g>
		<g>
			<path fill="#CCD1D9" d="M52.015,38.998h-8.998c-0.553,0-1-0.447-1-1s0.447-1,1-1h8.998c0.553,0,1,0.447,1,1
				S52.567,38.998,52.015,38.998z"/>
		</g>
		<g>
			<path fill="#CCD1D9" d="M52.015,47.002h-7c-0.553,0-1-0.447-1-1s0.447-1,1-1h7c0.553,0,1,0.447,1,1S52.567,47.002,52.015,47.002z
				"/>
		</g>
		<g>
			<path fill="#CCD1D9" d="M41.015,47.002h-3.998c-0.553,0-1-0.447-1-1s0.447-1,1-1h3.998c0.553,0,1,0.447,1,1
				S41.567,47.002,41.015,47.002z"/>
		</g>
		<g>
			<path fill="#CCD1D9" d="M48.015,43H37.017c-0.553,0-1-0.447-1-1s0.447-1,1-1h10.998c0.553,0,1,0.447,1,1S48.567,43,48.015,43z"/>
		</g>
		<g>
			<path fill="#CCD1D9" d="M52.015,43h-1c-0.553,0-1-0.447-1-1s0.447-1,1-1h1c0.553,0,1,0.447,1,1S52.567,43,52.015,43z"/>
		</g>
		<g>
			<path fill="#CCD1D9" d="M39.017,38.998h-2c-0.553,0-1-0.447-1-1s0.447-1,1-1h2c0.553,0,1,0.447,1,1S39.569,38.998,39.017,38.998z
				"/>
		</g>
		<g>
			<path fill="#CCD1D9" d="M52.015,51.004h-9.998c-0.553,0-1-0.447-1-1s0.447-1,1-1h9.998c0.553,0,1,0.447,1,1
				S52.567,51.004,52.015,51.004z"/>
		</g>
		<g>
			<path fill="#CCD1D9" d="M38.017,51.004h-1c-0.553,0-1-0.447-1-1s0.447-1,1-1h1c0.553,0,1,0.447,1,1S38.569,51.004,38.017,51.004z
				"/>
		</g>
		<g>
			<path fill="#CCD1D9" d="M52.015,55.006h-4c-0.553,0-1-0.447-1-1s0.447-1,1-1h4c0.553,0,1,0.447,1,1S52.567,55.006,52.015,55.006z
				"/>
		</g>
		<g>
			<path fill="#CCD1D9" d="M44.015,55.006h-6.998c-0.553,0-1-0.447-1-1s0.447-1,1-1h6.998c0.553,0,1,0.447,1,1
				S44.567,55.006,44.015,55.006z"/>
		</g>
	</g>
	<g>
		<g>
			<g>
				<path fill="#4A89DC" d="M23.988,15.996c-0.256,0-0.512-0.098-0.707-0.293c-0.391-0.391-0.391-1.023,0-1.414l3-3
					c0.391-0.391,1.023-0.391,1.414,0s0.391,1.023,0,1.414l-3,3C24.5,15.898,24.244,15.996,23.988,15.996z"/>
			</g>
			<g>
				<path fill="#4A89DC" d="M26.988,18.996c-0.256,0-0.512-0.098-0.707-0.293l-3-3c-0.391-0.391-0.391-1.023,0-1.414
					s1.023-0.391,1.414,0l3,3c0.391,0.391,0.391,1.023,0,1.414C27.5,18.898,27.244,18.996,26.988,18.996z"/>
			</g>
			<g>
				<path fill="#4A89DC" d="M39.995,15.996c-0.256,0-0.512-0.098-0.707-0.293l-3-3c-0.391-0.391-0.391-1.023,0-1.414
					s1.023-0.391,1.414,0l3,3c0.391,0.391,0.391,1.023,0,1.414C40.507,15.898,40.251,15.996,39.995,15.996z"/>
			</g>
			<g>
				<path fill="#4A89DC" d="M36.995,18.996c-0.256,0-0.512-0.098-0.707-0.293c-0.391-0.391-0.391-1.023,0-1.414l3-3
					c0.391-0.391,1.023-0.391,1.414,0s0.391,1.023,0,1.414l-3,3C37.507,18.898,37.251,18.996,36.995,18.996z"/>
			</g>
			<g>
				<path fill="#4A89DC" d="M29.99,20.998c-0.124,0-0.25-0.022-0.371-0.071c-0.513-0.205-0.763-0.787-0.558-1.3l4.001-10.004
					c0.204-0.515,0.79-0.764,1.3-0.558c0.513,0.205,0.763,0.787,0.558,1.3l-4.001,10.004C30.763,20.761,30.387,20.998,29.99,20.998z
					"/>
			</g>
		</g>
	</g>
</g>
</svg>
