<?xml version="1.0" encoding="UTF-8"?>
<svg clip-rule="evenodd" fill-rule="evenodd" image-rendering="optimizeQuality" shape-rendering="geometricPrecision"
     text-rendering="geometricPrecision" viewBox="0 0 2048 2048" xml:space="preserve"
     xmlns="http://www.w3.org/2000/svg"><defs><clipPath id="a">
    <path d="m1024-1e-3c565.54 0 1024 458.46 1024 1024 0 565.54-458.46 1024-1024 1024-565.54 0-1024-458.46-1024-1024 0-565.54 458.46-1024 1024-1024z"/></clipPath>
    </defs>
    <path d="m1024-1e-3c565.54 0 1024 458.46 1024 1024 0 565.54-458.46 1024-1024 1024-565.54 0-1024-458.46-1024-1024 0-565.54 458.46-1024 1024-1024z"
          fill="#c5cae9"/>
    <g clip-path="url(#a)"><path fill="#9fa8da" d="M1578.67 472.491 2714.55 1608.37l1.35 1.8 1.17 1.92.98 2.04.78 2.15.58 2.23.35 2.32.12 2.39L1584 487.334l-.12-2.386-.35-2.317-.58-2.236-.78-2.144-.99-2.04-1.16-1.924z"/>
        <path fill="#9fa8da" d="m1584 487.33 1135.9 1135.9v210l-1135.9-1135.9z"/>
        <path fill="#9fa8da" d="m1584 697.34 1135.9 1135.9v46.66l-1135.9-1135.9z"/>
        <path fill="#9fa8da" d="m1584 744 1135.9 1135.9v816.67l-1135.9-1135.9z"/>
        <path fill="#9fa8da"
              d="m1584 1560.67 1135.88 1135.88-.12 2.38-.35 2.32-.58 2.24-.78 2.14-.98 2.04-1.17 1.92-1.35 1.8-1.5 1.66-1.66 1.5-1.8 1.35-1.92 1.17-2.04.98-2.14.78-2.24.58-2.32.35-2.38.12L1560.67 1584l2.38-.12 2.32-.35 2.24-.58 2.14-.78 2.04-.99 1.92-1.16 1.8-1.35 1.66-1.5 1.5-1.66 1.35-1.8 1.16-1.92.99-2.04.78-2.14.58-2.24.35-2.32z"/>
        <path fill="#9fa8da" d="m1560.7 1584 1135.9 1135.9h-1073.3l-1135.9-1135.9z"/>
        <path fill="#9fa8da"
              d="M487.334 1584 1623.22 2719.88l-2.39-.12-2.32-.35-2.23-.58-2.15-.78-2.04-.98-1.92-1.17-1.8-1.35L472.491 1578.67l1.796 1.35 1.924 1.16 2.04.99 2.144.78 2.236.58 2.317.35z"/>
        <path fill="#9fa8da"
              d="m1560.7 464c12.887 0 23.335 10.448 23.335 23.335v1073.3c0 12.887-10.448 23.335-23.335 23.335h-1073.3c-12.887 0-23.335-10.448-23.335-23.335v-1073.3c0-12.887 10.448-23.335 23.335-23.335h1073.3z"/></g>
    <path d="m1024-1e-3c565.54 0 1024 458.46 1024 1024 0 565.54-458.46 1024-1024 1024-565.54 0-1024-458.46-1024-1024 0-565.54 458.46-1024 1024-1024z"
          fill="none"/>
    <path d="m1584 697.34v863.33c0 12.887-10.448 23.335-23.335 23.335h-1073.3c-12.887 0-23.335-10.448-23.335-23.335v-863.33h1120z"
          fill="#8e96a3"/>
    <path d="m1584 697.34v46.664h-1120v-46.664z" fill="#7b838e"/>
    <path d="m487.33 464h1073.3c12.887 0 23.335 10.448 23.335 23.335v210h-1120v-210c0-12.887 10.447-23.334 23.334-23.334z"
          fill="#415065"/>
    <path d="m1397.4 532.81v93.332h93.33v-93.332z" fill="#ef5350"/>
    <path d="m1070.6 626.14h93.34v-93.332h-93.34z" fill="#ffab40"/>
    <path d="m1233.8 532.81v93.332h93.33v-93.332z" fill="#7cb342"/>
    <path d="m916.38 1105.4h215.24c19.631 0 37.466 8.017 50.381 20.934 12.917 12.916 20.934 30.75 20.934 50.381v181.67c0 19.631-8.017 37.466-20.934 50.381-12.915 12.917-30.75 20.934-50.381 20.934h-215.24c-19.632 0-37.466-8.017-50.382-20.934-12.916-12.915-20.934-30.75-20.934-50.381v-181.67c0-19.631 8.018-37.465 20.934-50.381 12.916-12.917 30.75-20.934 50.382-20.934zm49.886 100.8c0-10.683-8.66-19.344-19.345-19.344-10.683 0-19.344 8.66-19.344 19.344v-0.477c0 10.683 8.66 19.344 19.344 19.344s19.345-8.661 19.345-19.344v0.477zm154.15 0c0-10.683-8.66-19.344-19.344-19.344s-19.345 8.66-19.345 19.344v-0.477c0 10.683 8.66 19.344 19.345 19.344 10.683 0 19.344-8.661 19.344-19.344v0.477zm-84.342-4.525c0-6.67-5.409-12.078-12.08-12.078-6.67 0-12.077 5.408-12.077 12.078l-7.267 72.47c0 10.685 8.661 19.346 19.345 19.346s19.345-8.661 19.345-19.346l-7.266-72.47zm72.63 101.76c-28.307 12.12-54.134 26.844-85.643 26.844-29.038 0-57.887-13.527-85.135-23.206 4.34 44.14 51.036 61.896 85.135 61.896 36.378 0 82.852-28.81 85.643-65.534z"
          fill="#ffd54f"/>
    <path d="m1475.4 872.3v-19.718h15.256v15.594c0 8.41-0.836 14.499-2.453 18.204-2.264 5.09-5.796 8.926-10.593 11.502l-3.476-6.7c2.857-1.386 4.96-3.545 6.36-6.542 1.402-2.996 2.184-7.088 2.319-12.34h-7.413zm-24.474 0v-19.718h15.23v15.594c0 8.41-0.81 14.499-2.426 18.204-2.265 5.09-5.796 8.926-10.594 11.502l-3.477-6.7c2.83-1.386 4.96-3.545 6.361-6.542 1.402-2.996 2.157-7.088 2.319-12.34h-7.413zm-76.685 70.045c0 12.857 2.264 22.458 6.792 28.805 4.529 6.347 9.866 9.537 16.039 9.537 6.2 0 11.482-3.06 15.822-9.118s6.523-15.336 6.523-27.805c0-13.727-2.211-23.778-6.63-30.19-4.422-6.445-9.867-9.635-16.363-9.635-6.307 0-11.59 3.094-15.822 9.248-4.23 6.155-6.361 15.884-6.361 29.158zm44.933 50.038v-12.663c-5.31 9.956-13.127 14.919-23.45 14.919-6.684 0-12.83-2.191-18.437-6.605-5.607-4.383-9.946-10.537-13.045-18.463-3.074-7.895-4.61-16.948-4.61-27.226 0-9.987 1.402-19.073 4.179-27.224 2.802-8.152 6.98-14.403 12.56-18.72 5.579-4.35 11.833-6.542 18.733-6.542 5.04 0 9.542 1.29 13.476 3.835 3.963 2.546 7.17 5.863 9.651 9.956v-49.651h14.124v138.38h-13.181zm-90.648 0v-138.38h14.205v138.38h-14.205zm-53.692 0v-100.24h12.776v15.176c3.263-7.09 6.28-11.792 9.057-14.048 2.75-2.256 5.796-3.416 9.111-3.416 4.798 0 9.65 1.837 14.61 5.478l-4.906 15.788c-3.45-2.48-6.928-3.707-10.404-3.707-3.128 0-5.903 1.128-8.384 3.351-2.479 2.256-4.231 5.35-5.283 9.312-1.59 6.025-2.371 12.63-2.371 19.815v52.486h-14.205zm-80.485-50.133c0 12.855 2.345 22.456 7.035 28.836 4.69 6.411 10.593 9.601 17.682 9.601 7.062 0 12.938-3.223 17.628-9.634 4.663-6.41 7.009-16.207 7.009-29.351 0-12.406-2.346-21.813-7.063-28.192-4.716-6.38-10.565-9.57-17.574-9.57-7.089 0-12.992 3.19-17.682 9.537s-7.035 15.95-7.035 28.773zm-14.609 0c0-18.56 4.314-32.317 12.965-41.242 7.198-7.41 15.984-11.149 26.361-11.149 11.537 0 20.97 4.512 28.275 13.565 7.332 9.022 10.97 21.49 10.97 37.408 0 12.92-1.616 23.068-4.851 30.447-3.235 7.411-7.951 13.147-14.124 17.237-6.2 4.092-12.939 6.123-20.27 6.123-11.724 0-21.212-4.48-28.463-13.502-7.25-8.989-10.863-21.94-10.863-38.887zm-122.4 50.133-30.727-138.38h15.714l17.628 90.699a571.05 571.05 0 0 1 4.88 28.32c2.964-14.788 4.688-23.294 5.228-25.581l22.02-93.438h18.492l16.577 70.046c4.15 17.366 7.142 33.7 9.002 48.974 1.457-8.731 3.396-18.784 5.769-30.094l18.14-88.926h15.417l-31.751 138.38h-14.771l-24.394-105.42c-2.049-8.829-3.262-14.242-3.639-16.24-1.213 6.348-2.344 11.76-3.396 16.24l-24.555 105.42h-15.634zm-147.6-50.133c0 12.855 2.345 22.456 7.035 28.836 4.69 6.411 10.593 9.601 17.681 9.601 7.063 0 12.94-3.223 17.63-9.634 4.661-6.41 7.007-16.207 7.007-29.351 0-12.406-2.346-21.813-7.062-28.192-4.717-6.38-10.566-9.57-17.575-9.57-7.088 0-12.99 3.19-17.68 9.537-4.691 6.347-7.037 15.95-7.037 28.773zm-14.609 0c0-18.56 4.313-32.317 12.964-41.242 7.198-7.41 15.985-11.149 26.361-11.149 11.537 0 20.972 4.512 28.276 13.565 7.33 9.022 10.97 21.49 10.97 37.408 0 12.92-1.617 23.068-4.852 30.447-3.234 7.411-7.951 13.147-14.124 17.237-6.198 4.092-12.937 6.123-20.27 6.123-11.723 0-21.212-4.48-28.463-13.502-7.25-8.989-10.862-21.94-10.862-38.887zm-30.942 50.133v-138.38h14.204v138.38h-14.204zm-35.93 0v-138.38h14.204v138.38h-14.205zm-78.896-59.768h46.82c-0.62-8.41-2.426-14.756-5.364-18.946-4.529-6.54-10.405-9.825-17.601-9.825-6.522 0-12.021 2.61-16.468 7.828-4.448 5.22-6.901 12.213-7.387 20.943zm46.658 27.485 14.69 2.157c-2.318 10.278-6.604 18.237-12.858 23.908-6.28 5.638-14.285 8.474-24.015 8.474-12.265 0-21.995-4.512-29.165-13.533-7.197-9.022-10.781-21.684-10.781-37.987 0-16.883 3.639-29.965 10.89-39.275 7.276-9.312 16.684-13.985 28.274-13.985 11.212 0 20.378 4.576 27.467 13.695 7.115 9.117 10.673 21.974 10.673 38.502 0 1.031-0.027 2.545-0.08 4.542h-62.534c0.512 11.02 3.127 19.461 7.817 25.293 4.69 5.864 10.512 8.796 17.52 8.796 5.202 0 9.649-1.643 13.34-4.93 3.694-3.253 6.606-8.474 8.762-15.657zm-171.91 32.283v-138.38h15.337v56.836h60.162v-56.836h15.336v138.38h-15.336v-65.213h-60.162v65.213h-15.337zm-20.512-115.15v19.718h-15.257v-15.562c0-8.441 0.863-14.531 2.533-18.333 2.211-5.027 5.715-8.829 10.513-11.405l3.478 6.605c-2.912 1.45-5.041 3.608-6.416 6.475-1.348 2.836-2.13 7.024-2.29 12.502h7.438zm-24.473 0v19.718h-15.257v-15.562c0-8.441 0.837-14.531 2.534-18.333 2.21-5.027 5.714-8.829 10.512-11.405l3.45 6.605c-2.884 1.45-5.013 3.608-6.388 6.475-1.375 2.836-2.13 7.024-2.291 12.502h7.44z"
          fill="#e3f2fd"/>
    <path fill="#ff6f00"
          d="M1023.07 1330.27c-29.039 0-57.887-13.527-85.135-23.206 4.34 44.14 51.035 61.895 85.135 61.895 36.378 0 82.852-28.81 85.643-65.533-28.308 12.12-54.135 26.844-85.643 26.844zM1004.65 1274.14c0 10.684 8.661 19.345 19.344 19.345 10.684 0 19.345-8.66 19.345-19.345l-7.266-72.47c0-6.67-5.408-12.078-12.079-12.078-6.67 0-12.078 5.408-12.078 12.078l-7.266 72.47zM946.924 1225.06c10.524 0 19.085-8.404 19.345-18.867 0-.16-.002-.319-.006-.477-.254-10.463-8.815-18.867-19.339-18.867-10.522 0-19.084 8.404-19.344 18.867 0 .16.002.319.006.477.254 10.463 8.816 18.867 19.338 18.867zM1081.74 1206.19c.254 10.463 8.816 18.867 19.34 18.867 10.522 0 19.084-8.404 19.344-18.867 0-.16-.003-.319-.006-.477-.254-10.464-8.816-18.867-19.339-18.867-10.523 0-19.085 8.403-19.345 18.867 0 .16.002.319.006.477z"/></svg>
