<?xml version="1.0" encoding="UTF-8"?>
<svg clip-rule="evenodd" fill-rule="evenodd" image-rendering="optimizeQuality" shape-rendering="geometricPrecision"
     text-rendering="geometricPrecision" viewBox="0 0 2048 2048" xml:space="preserve"
     xmlns="http://www.w3.org/2000/svg">
    <defs>
        <clipPath id="a">
            <path d="m1024-1e-3c565.54 0 1024 458.46 1024 1024 0 565.54-458.46 1024-1024 1024-565.54 0-1024-458.46-1024-1024 0-565.54 458.46-1024 1024-1024z"/></clipPath>
    </defs>
    <path d="m1024-1e-3c565.54 0 1024 458.46 1024 1024 0 565.54-458.46 1024-1024 1024-565.54 0-1024-458.46-1024-1024 0-565.54 458.46-1024 1024-1024z"
          fill="#ffcc80"/>
    <g clip-path="url(#a)">
        <path fill="#ffcc80" d="m1584 744 1135.9 1135.9v816.67l-1135.9-1135.9z"/>
        <path fill="#ffcc80"
              d="m1584 1560.67 1135.88 1135.88-.12 2.38-.35 2.32-.58 2.24-.78 2.14-.98 2.04-1.17 1.92-1.35 1.8-1.5 1.66-1.66 1.5-1.8 1.35-1.92 1.17-2.04.98-2.14.78-2.24.58-2.32.35-2.38.12L1560.67 1584l2.38-.12 2.32-.35 2.24-.58 2.14-.78 2.04-.99 1.92-1.16 1.8-1.35 1.66-1.5 1.5-1.66 1.35-1.8 1.16-1.92.99-2.04.78-2.14.58-2.24.35-2.32z"/>
        <path fill="#ffcc80" d="m1560.7 1584 1135.9 1135.9h-1073.3l-1135.9-1135.9z"/>
        <path fill="#ffcc80"
              d="M487.334 1584 1623.22 2719.88l-2.39-.12-2.32-.35-2.23-.58-2.15-.78-2.04-.98-1.92-1.17-1.8-1.35L472.491 1578.67l1.796 1.35 1.924 1.16 2.04.99 2.144.78 2.236.58 2.317.35z"/>
        <path fill="#ffcc80"
              d="M1578.67 472.491 2714.55 1608.37l1.35 1.8 1.17 1.92.98 2.04.78 2.15.58 2.23.35 2.32.12 2.39L1584 487.334l-.12-2.386-.35-2.317-.58-2.236-.78-2.144-.99-2.04-1.16-1.924z"/>
        <path fill="#ffcc80" d="m1584 487.33 1135.9 1135.9v210l-1135.9-1135.9z"/>
        <path fill="#ffcc80" d="m1584 697.34 1135.9 1135.9v46.66l-1135.9-1135.9z"/>
        <path fill="#ffcc80"
              d="m1584 744v816.67c0 12.887-10.448 23.335-23.335 23.335h-1073.3c-12.887 0-23.335-10.448-23.335-23.335v-1073.3c0-12.887 10.448-23.335 23.335-23.335h1073.3c12.887 0 23.335 10.448 23.335 23.335v256.66z"/></g>
    <path d="m1024-1e-3c565.54 0 1024 458.46 1024 1024 0 565.54-458.46 1024-1024 1024-565.54 0-1024-458.46-1024-1024 0-565.54 458.46-1024 1024-1024z"
          fill="none"/>
    <path d="m1584 697.34v863.33c0 12.887-10.448 23.335-23.335 23.335h-1073.3c-12.887 0-23.335-10.448-23.335-23.335v-863.33h1120z"
          fill="#bdbdbd"/>
    <path d="m1584 697.34v46.664h-1120v-46.664z" fill="#7b838e"/>
    <path d="m487.33 464h1073.3c12.887 0 23.335 10.448 23.335 23.335v210h-1120v-210c0-12.887 10.447-23.334 23.334-23.334z"
          fill="#415065"/>
    <path d="m1397.4 532.81v93.332h93.33v-93.332z" fill="#ef5350"/>
    <path d="m1070.6 626.14h93.34v-93.332h-93.34z" fill="#ffab40"/>
    <path d="m1233.8 532.81v93.332h93.33v-93.332z" fill="#7cb342"/>
    <path fill="#e53935" d="m767.33 1240h373.34v46.67h-373.34z"/>
    <path fill="#dd2c00"
          d="m1302.4 872.23h12.06c28.586 0 47.903 5.47 57.953 16.302s15.075 33.165 15.075 67.11v79.393c0 36.625 4.69 62.755 14.18 78.388 9.493 15.744 26.242 27.023 50.249 34.056-24.007 6.7-40.756 17.868-50.249 33.612-9.49 15.632-14.18 41.761-14.18 78.498v78.948c0 33.833-4.914 56.166-14.74 66.998-9.826 10.718-28.362 16.19-55.608 16.19-1.564 0-3.908-0.112-7.259-0.334-3.237-0.224-5.695-0.335-7.481-0.335v34.728h15.41c42.879 0 72.024-7.93 87.097-23.673 15.186-15.746 22.78-48.127 22.78-96.814v-79.95c0-33.611 6.252-57.284 18.647-71.019 9.524-10.553 24.325-17.085 44.297-19.544v-35.615c-19.972-2.459-34.773-8.989-44.297-19.543-12.395-13.846-18.647-37.631-18.647-71.242v-79.504c0-48.574-7.594-81.068-22.892-97.147-15.298-16.191-44.217-24.231-86.985-24.231h-15.41v34.728z"/>
    <path fill="#e53935" d="m767.33 1123.3h536.67v46.67h-536.67zm0-116.66h536.67v46.66h-536.67z"/>
    <path fill="#dd2c00"
          d="m745.55 872.23h-12.06c-28.586 0-47.903 5.47-57.953 16.302s-15.075 33.165-15.075 67.11v79.393c0 36.625-4.69 62.755-14.18 78.388-9.493 15.744-26.242 27.023-50.249 34.056 24.007 6.7 40.756 17.868 50.249 33.612 9.49 15.632 14.18 41.761 14.18 78.498v78.948c0 33.833 4.914 56.166 14.74 66.998 9.826 10.718 28.362 16.19 55.608 16.19 1.564 0 3.908-0.112 7.259-0.334 3.237-0.224 5.695-0.335 7.481-0.335v34.728h-15.41c-42.879 0-72.024-7.93-87.097-23.673-15.186-15.746-22.78-48.127-22.78-96.814v-79.95c0-33.611-6.252-57.284-18.647-71.019-9.524-10.553-24.325-17.085-44.297-19.544v-35.615c19.972-2.459 34.773-8.989 44.297-19.543 12.395-13.846 18.647-37.631 18.647-71.242v-79.504c0-48.574 7.594-81.068 22.892-97.147 15.298-16.191 44.217-24.231 86.985-24.231h15.41v34.728z"/></svg>
