<?xml version="1.0" encoding="UTF-8"?>
<svg viewBox="0 0 2048 2048" xml:space="preserve" xmlns="http://www.w3.org/2000/svg">
    <defs><clipPath id="a">
        <path d="m1024-1e-3c565.54 0 1024 458.46 1024 1024 0 565.54-458.46 1024-1024 1024-565.54 0-1024-458.46-1024-1024 0-565.54 458.46-1024 1024-1024z"/></clipPath>
        <style>.fil1{fill:#b0bec5}.fil5{fill:#ffecb3}</style></defs>
    <path d="m1024-1e-3c565.54 0 1024 458.46 1024 1024 0 565.54-458.46 1024-1024 1024-565.54 0-1024-458.46-1024-1024 0-565.54 458.46-1024 1024-1024z"
          fill="#cfd8dc"/>
    <g clip-path="url(#a)"><path class="fil1" d="M682.514 712.86 1818.39 1848.74l-1.65.01-1.72.02-1.79.03-1.84.04-1.89.07-1.94.09-1.98.1-2.02.13-2.04.16-2.07.18-2.09.21-2.1.25-2.11.27-2.12.31-2.11.35-2.1.39-2.09.42-2.07.47-2.05.51-2.01.56-1.99.6-1.94.66-1.89.7-1.85.76-1.79.82-1.73.87-1.66.93-1.58.99-1.51 1.06-1.43 1.11-1.34 1.19-1.24 1.25L622.769 728.369l1.243-1.253 1.337-1.185 1.427-1.117 1.51-1.054 1.587-.992 1.659-.93 1.728-.871 1.789-.815 1.846-.76 1.896-.706 1.942-.654 1.982-.605 2.017-.558 2.047-.511 2.071-.468 2.089-.426 2.102-.385 2.111-.347 2.113-.31 2.111-.276 2.101-.243 2.089-.212 2.07-.183 2.044-.156 2.015-.131 1.98-.107 1.939-.085 1.893-.067 1.843-.047 1.784-.032 1.724-.017z"/>
        <path class="fil1"
              d="M608.098 892.807 1743.98 2028.69l-.01 2.85-.02 2.91-.04 2.97-.06 3.03-.09 3.07-.1 3.11-.14 3.16-.16 3.19-.19 3.21-.23 3.24-.26 3.26-.29 3.28-.34 3.28-.37 3.29-.42 3.28-.46 3.28-.51 3.27-.56 3.25-.61 3.23-.66 3.21-.71 3.17-.77 3.15-.84 3.1-.89 3.05-.96 3.01-1.02 2.95-1.09 2.89-1.15 2.82-1.23 2.75-1.31 2.68-1.37 2.6-1.46 2.52L589.779 990.867l1.455-2.516 1.379-2.6 1.302-2.68 1.23-2.754 1.157-2.824 1.089-2.89 1.022-2.949.956-3.005.892-3.056.833-3.099.773-3.142.717-3.176.66-3.205.608-3.233.558-3.253.509-3.268.461-3.28.417-3.284.376-3.286.333-3.282.296-3.273.259-3.26.225-3.24.192-3.217.162-3.188.134-3.155.108-3.115.083-3.073.061-3.024.041-2.971.024-2.912z"/>
        <path class="fil1"
              d="M622.769 728.369 1758.65 1864.25l-1.22 1.42-1.15 1.56-1.09 1.67-1.02 1.8-.95 1.9-.9 2-.83 2.09-.78 2.18-.73 2.25-.67 2.33-.62 2.38-.57 2.43-.52 2.47-.48 2.51-.43 2.54-.4 2.56-.35 2.57-.32 2.57-.28 2.57-.25 2.56-.22 2.53-.19 2.51-.16 2.47-.13 2.43-.11 2.37-.09 2.31-.08 2.24-.05 2.17-.04 2.08-.02 1.98-.02 1.89v1.78L608.098 799.483l.004-1.776.014-1.887.025-1.986.039-2.08.053-2.165.072-2.243.09-2.31.112-2.373.136-2.425.16-2.47.188-2.506.219-2.535.248-2.556.282-2.568.318-2.573.354-2.57.393-2.558.435-2.54.478-2.511.523-2.475.571-2.432.62-2.381.671-2.321.724-2.252.779-2.178.835-2.093.896-2.002.956-1.902 1.02-1.793 1.084-1.678 1.152-1.553z"/>
        <path class="fil1" d="m608.1 799.48 1135.9 1135.9v93.32l-1135.9-1135.9z"/>
        <path class="fil1" d="m708.12 649.18 1135.9 1135.9v63.68l-1135.9-1135.9z"/>
        <path class="fil1"
              d="m589.78 990.87 1135.9 1135.9-1.76 2.79-1.86 2.68-1.94 2.6-2.04 2.5-2.11 2.41-2.2 2.32-2.27 2.23-2.35 2.14-2.41 2.07-2.48 1.98-2.55 1.89-2.6 1.82-2.67 1.75-2.71 1.66-2.77 1.6-2.81 1.52-1135.9-1135.9 2.813-1.53 2.765-1.59 2.716-1.67 2.662-1.74 2.606-1.82 2.545-1.9 2.482-1.98 2.416-2.06 2.346-2.14 2.271-2.23 2.197-2.32 2.115-2.41 2.033-2.505 1.945-2.594 1.857-2.688z"/>
        <path class="fil1"
              d="m575.6 1041.1 1135.9 1135.9 2.28 2.22 2.19 2.31 2.12 2.4 2.03 2.5 1.94 2.59 1.86 2.69 1.76 2.78-1135.9-1135.9-1.762-2.79-1.856-2.68-1.945-2.59-2.031-2.5-2.116-2.4-2.194-2.31z"/>
        <path class="fil1"
              d="M589.779 1058.58 1725.66 2194.46l1.46 2.52 1.38 2.6 1.3 2.68 1.23 2.76 1.16 2.83 1.09 2.89 1.02 2.96.96 3.01.89 3.06.83 3.1.77 3.14.72 3.19.66 3.21.61 3.23.56 3.26.51 3.27.46 3.29.41 3.29.38 3.29.33 3.29.3 3.27.26 3.27.22 3.24.19 3.22.16 3.2.14 3.15.1 3.12.09 3.08.06 3.03.04 2.97.02 2.92.01 2.85L608.098 1156.77l-.007-2.85-.024-2.92-.04-2.97-.061-3.03-.083-3.08-.107-3.12-.134-3.16-.162-3.19-.191-3.22-.224-3.25-.259-3.26-.295-3.28-.333-3.28-.375-3.29-.417-3.29-.462-3.29-.507-3.27-.558-3.26-.608-3.24-.66-3.21-.717-3.18-.773-3.14-.832-3.11-.893-3.06-.957-3.01-1.022-2.95-1.089-2.89-1.158-2.83-1.231-2.76-1.304-2.68-1.378-2.6z"/>
        <path class="fil1"
              d="M515.702 1072.67 1651.58 2208.55l-1.17-1.01-1.21-.98-1.24-.93-1.26-.9-1.3-.85-1.32-.82-1.35-.78-1.37-.75-1.39-.72-1.42-.68-1.43-.64-1.45-.62-1.46-.58-1.48-.55-1.49-.53-1.5-.49-1.52-.47-1.52-.43-1.52-.42-1.53-.38-1.54-.37-1.53-.33-1.54-.32-1.53-.29-1.53-.27-1.53-.25-1.52-.23-1.52-.22-1.5-.19L474.03 1056.67l1.503.19 1.513.21 1.522.23 1.527.25 1.531.28 1.535.29 1.535.31 1.536.34 1.534.36 1.531.39 1.526.41 1.52.44 1.512.47 1.502.49 1.492.53 1.479.55 1.464.58 1.449.62 1.432.64 1.412.68 1.394.72 1.37.74 1.348.79 1.323.82 1.295.85 1.268.9 1.237.93 1.208.97z"/>
        <path class="fil1"
              d="M608.098 1249.57 1743.98 2385.45v1.76l.02 1.87.02 1.98.04 2.07.05 2.16.07 2.23.09 2.31.11 2.36.13 2.43.15 2.46.19 2.51.21 2.53.24 2.56.28 2.57.31 2.58.34 2.57.39 2.56.42 2.54.47 2.51.51 2.48.56 2.44.6 2.38.66 2.33.71 2.25.76 2.18.82 2.1.87 2 .94 1.9 1 1.79 1.06 1.68 1.13 1.55 1.19 1.41L622.44 1320.62l-1.195-1.42-1.127-1.55-1.062-1.67-.996-1.79-.937-1.91-.875-2-.819-2.09-.762-2.18-.707-2.26-.657-2.32-.606-2.38-.557-2.44-.512-2.48-.466-2.51-.425-2.54-.385-2.56-.346-2.58-.31-2.57-.275-2.57-.242-2.56-.213-2.53-.183-2.51-.156-2.47-.132-2.42-.109-2.37-.088-2.3-.069-2.24-.053-2.15-.037-2.07-.024-1.98-.013-1.87z"/>
        <path class="fil1" d="m622.44 1320.6 1135.9 1135.9 1.2 1.23 1.28 1.16-1135.9-1135.9-1.281-1.16z"/>
        <path class="fil1" d="m474.03 1056.7 1135.9 1135.9-10.03-1.23-1135.9-1135.9z"/>
        <path class="fil1" d="m708.12 1398.8 1135.9 1135.9h-29.54l-1135.9-1135.9z"/>
        <path class="fil1"
              d="M678.576 1398.82 1814.46 2534.7l-3.36-.01-3.42-.04-3.5-.08-3.55-.1-3.61-.15-3.66-.19-3.7-.23-3.73-.28-3.76-.34-3.78-.39-3.79-.44-3.8-.51-3.8-.58-3.79-.65-3.78-.71-3.76-.8-3.73-.87-3.7-.96-3.66-1.04-3.61-1.13-3.55-1.23-3.5-1.32-3.42-1.42-3.35-1.53-3.27-1.63-3.19-1.74-3.08-1.86-2.99-1.97-2.87-2.1-2.77-2.22L573.103 1372.3l2.762 2.22 2.876 2.09 2.985 1.98 3.087 1.85 3.182 1.75 3.27 1.63 3.352 1.52 3.426 1.43 3.494 1.32 3.555 1.23 3.61 1.13 3.656 1.04 3.698.96 3.733.87 3.758.79 3.779.72 3.793.65 3.8.57 3.799.51 3.793.45 3.779.39 3.76.34 3.731.28 3.698.23 3.658.19 3.609.14 3.556.11 3.494.07 3.428.05z"/>
        <path class="fil1" d="m608.1 1156.8 1135.9 1135.9v92.8l-1135.9-1135.9z"/>
        <path class="fil1" d="m708.12 1335.1 1135.9 1135.9v63.68l-1135.9-1135.9z"/>
        <path class="fil1" d="m708.12 712.86 1135.9 1135.9h-25.61l-1135.9-1135.9z"/>
        <path class="fil1" d="m806.86 867.92 1135.9 1135.9v76.11l-1135.9-1135.9z"/>
        <path class="fil1" d="m806.86 944.03 1135.9 1135.9-122.5 79.59-1135.9-1135.9z"/>
        <path class="fil1" d="m806.86 1103.9 1135.9 1135.9v76.32l-1135.9-1135.9z"/>
        <path class="fil1" d="m806.86 1180.2 1135.9 1135.9-189.3-128.07-1135.9-1135.9z"/>
        <path class="fil1" d="m867.63 1275.8 1135.9 1135.9-66.21-17.69-1135.9-1135.9z"/>
        <path class="fil1" d="m1018 789.89 1135.9 1135.9-150.38 485.91-1135.9-1135.9z"/>
        <path class="fil1"
              d="M1510.01 896.744 2645.89 2032.63l.01 2.21.03 2.27.04 2.33.07 2.38.08 2.43.12 2.46.14 2.51.17 2.53.21 2.56.23 2.59.27 2.59.32 2.61.34 2.62.4 2.61.43 2.61.48 2.61.54 2.58.57 2.57.64 2.54.68 2.52.75 2.47.8 2.44.86 2.39.92 2.35.99 2.28 1.06 2.23 1.12 2.16 1.2 2.09 1.26 2.02 1.35 1.93 1.42 1.85 1.49 1.76L1529 972.849l-1.5-1.759-1.42-1.849-1.34-1.935-1.26-2.015-1.2-2.092-1.12-2.161-1.06-2.228-.99-2.286-.92-2.344-.86-2.391-.8-2.438-.75-2.478-.68-2.512-.64-2.543-.58-2.568-.53-2.587-.48-2.6-.43-2.612-.4-2.615-.35-2.615-.31-2.609-.27-2.598-.24-2.582-.2-2.562-.17-2.535-.14-2.504-.12-2.468-.09-2.427-.06-2.38-.05-2.328-.02-2.273z"/>
        <path class="fil1" d="m1584 993.35 1135.9 1135.9v62.08l-1135.9-1135.9z"/>
        <path class="fil1" d="m1584 1055.4 1135.9 1135.9-10.03 1.23-1135.9-1135.9z"/>
        <path class="fil1"
              d="m1495.8 1024.8 1135.9 1135.9-2.81-1.52-2.76-1.6-2.72-1.66-2.66-1.75-2.61-1.82-2.54-1.89-2.49-1.98-2.41-2.07-2.35-2.14-2.27-2.23-2.2-2.32-1135.9-1135.9 2.2 2.32 2.27 2.23 2.35 2.14 2.41 2.06 2.48 1.98 2.55 1.9 2.61 1.82 2.66 1.74 2.71 1.67 2.77 1.59z"/>
        <path class="fil1"
              d="m1528.99 1075.96 1135.88 1135.88-1.5 1.75-1.42 1.84-1.34 1.93-1.27 2-1.19 2.09-1.12 2.15-1.06 2.22-.99 2.28-.92 2.33-.86 2.38-.8 2.43-.74 2.47-.69 2.5-.63 2.54-.58 2.55-.53 2.58-.48 2.59-.44 2.6-.39 2.61-.35 2.6-.31 2.6-.27 2.59-.24 2.58-.2 2.55-.17 2.53-.14 2.49-.12 2.46-.08 2.42-.07 2.37-.04 2.32-.03 2.27-.01 2.2-1135.88-1135.88.01-2.2.02-2.27.05-2.32.06-2.37.09-2.42.12-2.46.14-2.5.17-2.52.2-2.56.24-2.57.27-2.59.31-2.6.35-2.6.39-2.61.44-2.6.48-2.59.53-2.58.58-2.56.63-2.53.69-2.5.74-2.47.8-2.43.86-2.38.92-2.34.99-2.27 1.06-2.22 1.12-2.16 1.19-2.08 1.27-2.01 1.34-1.92 1.42-1.84z"/>
        <path class="fil1" d="m1378.3 1112.1 1135.9 1135.9v58.05l-1135.9-1135.9z"/>
        <path class="fil1" d="m1201.9 994.42 1135.9 1135.9v57.74l-1135.9-1135.9z"/>
        <path class="fil1" d="m1134.9 1023.6 1135.9 1135.9-122.35-79.6-1135.9-1135.9z"/>
        <path class="fil1" d="m1201.9 1052.2 1135.9 1135.9-189.31 128.07-1135.9-1135.9z"/>
        <path class="fil1"
              d="m1573.97 1056.67 1135.88 1135.88-1.5.19-1.52.22-1.52.23-1.52.25-1.53.27-1.54.29-1.54.32-1.53.33-1.53.37-1.54.38-1.52.42-1.52.43-1.51.47-1.51.49-1.49.53-1.48.55-1.46.58-1.45.62-1.43.64-1.41.68-1.4.72-1.37.75-1.35.78-1.32.82-1.29.85-1.27.9-1.24.93-1.21.98-1.17 1.01-1.14 1.05-1.1 1.1-1.07 1.14-1135.88-1135.88 1.06-1.14 1.11-1.1 1.14-1.05 1.17-1.02 1.21-.97 1.24-.93 1.26-.9 1.3-.85 1.32-.82 1.35-.79 1.37-.74 1.39-.72 1.42-.68 1.43-.64 1.45-.62 1.46-.58 1.48-.55 1.49-.53 1.51-.49 1.51-.47 1.52-.44 1.52-.41 1.53-.39 1.54-.36 1.53-.34 1.54-.31 1.53-.29 1.54-.28 1.52-.25 1.52-.23 1.52-.21z"/>
        <path class="fil1"
              d="M1425.23 728.369 2561.11 1864.25l-1.24-1.25-1.34-1.19-1.42-1.11-1.51-1.06-1.59-.99-1.66-.93-1.73-.87-1.79-.82-1.84-.76-1.9-.7-1.94-.66-1.98-.6-2.02-.56-2.05-.51-2.07-.47-2.09-.42-2.1-.39-2.11-.35-2.11-.31-2.11-.27-2.11-.25-2.09-.21-2.06-.18-2.05-.16-2.01-.13-1.98-.1-1.94-.09-1.9-.07-1.84-.04-1.78-.03-1.73-.02-1.65-.01L1365.49 712.86l1.65.006 1.73.017 1.78.032 1.84.047 1.9.067 1.94.085 1.97.107 2.02.131 2.04.156 2.07.183 2.09.212 2.1.243 2.11.276 2.12.31 2.11.347 2.1.385 2.09.426 2.07.468 2.05.511 2.01.558 1.99.605 1.94.654 1.9.706 1.84.76 1.79.815 1.73.871 1.66.93 1.58.992 1.51 1.054 1.43 1.117 1.34 1.185z"/>
        <path class="fil1" d="m1365.5 712.86 1135.9 1135.9h-25.61l-1135.9-1135.9z"/>
        <path class="fil1"
              d="M1482.42 683.969 2618.3 1819.85l2.31 2.9 2.18 3.04 2.06 3.19 1.93 3.32 1.81 3.44 1.7 3.56 1.58 3.67 1.47 3.75 1.37 3.85 1.27 3.93 1.17 3.99 1.08 4.06.99 4.1.9 4.15.82 4.18.74 4.21.66 4.23.6 4.23.53 4.22.46 4.22.4 4.2.35 4.16.29 4.13.25 4.09.2 4.02.16 3.96.12 3.89.09 3.8.06 3.72.03 3.61.01 3.5L1510.01 803.288l-.01-3.502-.03-3.611-.06-3.713-.09-3.804-.12-3.887-.16-3.961-.2-4.027-.25-4.082-.29-4.129-.35-4.168-.4-4.196-.47-4.217-.52-4.227-.6-4.231-.66-4.223-.74-4.207-.82-4.184-.9-4.149-.99-4.107-1.08-4.055-1.17-3.994-1.27-3.925-1.37-3.847-1.47-3.759-1.58-3.663-1.7-3.558-1.81-3.443-1.93-3.32-2.06-3.188-2.18-3.046z"/>
        <path class="fil1" d="m1510 803.29 1135.9 1135.9v93.46l-1135.9-1135.9z"/>
        <path class="fil1" d="m1378.3 1170.1 1135.9 1135.9h-227.33l-1135.9-1135.9z"/>
        <path class="fil1"
              d="m1480.05 1367.48 1135.88 1135.88-2.51 2.48-2.64 2.34-2.76 2.22-2.88 2.1-2.99 1.97-3.08 1.86-3.18 1.74-3.27 1.63-3.36 1.53-3.42 1.42-3.5 1.32-3.55 1.23-3.61 1.13-3.66 1.04-3.7.96-3.73.87-3.76.8-3.78.71-3.79.65-3.8.58-3.8.51-3.79.44-3.78.39-3.76.34-3.73.28-3.7.23-3.66.19-3.6.15-3.56.1-3.49.08-3.43.04-3.35.01-1135.89-1135.88 3.36-.01 3.42-.05 3.5-.07 3.55-.11 3.61-.14 3.66-.19 3.7-.23 3.73-.28 3.76-.34 3.78-.39 3.79-.45 3.8-.51 3.8-.57 3.79-.65 3.78-.72 3.76-.79 3.73-.87 3.7-.96 3.66-1.04 3.61-1.13 3.55-1.23 3.5-1.32 3.42-1.43 3.35-1.52 3.28-1.63 3.18-1.75 3.08-1.85 2.99-1.98 2.88-2.09 2.76-2.22 2.64-2.34z"/>
        <path class="fil1" d="m1369.4 1398.8 1135.9 1135.9h-29.55l-1135.9-1135.9z"/>
        <path class="fil1" d="m1510 1151.8 1135.9 1135.9v93.98l-1135.9-1135.9z"/>
        <path class="fil1"
              d="m1510.01 1245.76 1135.88 1135.88-.01 3.48-.03 3.58-.06 3.7-.08 3.78-.12 3.88-.16 3.94-.2 4.02-.24 4.08-.3 4.12-.34 4.16-.4 4.2-.46 4.21-.52 4.23-.59 4.23-.66 4.22-.74 4.21-.81 4.18-.9 4.15-.99 4.11-1.07 4.05-1.17 3.99-1.26 3.92-1.37 3.85-1.47 3.75-1.58 3.65-1.7 3.54-1.8 3.43-1.93 3.3-2.06 3.17-2.18 3.02-2.31 2.87-2.45 2.7-1135.88-1135.88 2.44-2.7 2.32-2.87 2.18-3.02 2.05-3.17 1.93-3.3 1.81-3.43 1.7-3.54 1.58-3.66 1.47-3.75 1.37-3.84 1.26-3.92 1.17-3.99 1.07-4.05.99-4.11.89-4.15.82-4.18.74-4.21.66-4.22.59-4.23.52-4.23.46-4.22.4-4.19.34-4.16.3-4.13.24-4.07.2-4.02.15-3.95.12-3.87.09-3.79.06-3.69.03-3.59z"/>
        <path class="fil1"
              d="m951.8 772.2 66.206 17.69-150.38 485.91-66.206-17.691 150.38-485.91zm-144.94 95.726v76.11l-122.5 79.59 122.5 80.28v76.32l-189.3-128.07v-57.736l189.3-126.49zm-254.61 156.9c15.13 7.793 28.386 18.635 37.53 33.752 15.963 26.386 18.32 68.122 18.32 98.19v92.8c0 18.166 1.23 56.677 14.342 71.055 12.268 13.453 40.122 15.305 56.924 15.305 2.56 0 5.205-0.195 7.759-0.367 3.168-0.216 6.39-0.42 9.566-0.42h11.428v63.678h-29.542c-35.335 0-84.557-4.217-110.62-31.337-26.853-27.945-29.964-85.302-29.964-121.72v-93.98c0-23.16-2.576-57.651-18.977-75.825-11.171-12.38-28.995-17.319-44.982-19.287l-10.032-1.236v-62.079l10.032-1.234c15.954-1.965 33.836-6.886 44.968-19.27 16.408-18.256 18.99-52.872 18.99-76.105v-93.456c0-36.736 3.197-93.74 30.044-122.06 26.222-27.657 74.738-32.05 110.54-32.05h29.542v63.679h-25.604c-17.28 0-47.003 1.776-59.745 15.509-13.391 14.43-14.67 52.774-14.67 71.114v93.324c0 30.041-2.373 71.7-18.32 98.06-9.146 15.118-22.413 26.032-37.53 33.959zm957.76-128.08c0 23.233 2.583 57.848 18.991 76.103 11.132 12.386 29.014 17.306 44.968 19.271l10.031 1.235v62.078l-10.03 1.236c-15.988 1.969-33.812 6.908-44.983 19.287-16.401 18.174-18.977 52.664-18.977 75.825v93.98c0 36.42-3.111 93.776-29.965 121.72-26.064 27.12-75.287 31.337-110.62 31.337h-29.541v-63.678h11.428c3.176 0 6.398 0.205 9.566 0.42 2.553 0.172 5.199 0.367 7.758 0.367 16.803 0 44.657-1.852 56.925-15.305 13.113-14.378 14.342-52.889 14.342-71.055v-92.8c0-30.068 2.356-71.803 18.319-98.19 9.145-15.116 22.4-25.959 37.53-33.752-15.116-7.926-28.384-18.84-37.53-33.959-15.946-26.36-18.319-68.018-18.319-98.06v-93.323c0-18.34-1.28-56.684-14.67-71.115-12.742-13.732-42.465-15.509-59.745-15.509h-25.604v-63.678h29.541c35.806 0 84.322 4.393 110.54 32.05 26.848 28.317 30.044 85.321 30.044 122.06v93.456zm-308.14 97.672v57.735l-189.3 128.07v-76.315l122.35-80.285-122.35-79.594v-76.106l189.3 126.49zm176.41 117.66v58.046h-227.33v-58.046h227.33z"/></g>
    <path d="m1024-1e-3c565.54 0 1024 458.46 1024 1024 0 565.54-458.46 1024-1024 1024-565.54 0-1024-458.46-1024-1024 0-565.54 458.46-1024 1024-1024z"
          fill="none"/>
    <path d="M552.248 1024.83c15.13 7.793 28.386 18.635 37.53 33.752 15.963 26.386 18.32 68.12 18.32 98.19v92.8c0 18.167 1.23 56.677 14.342 71.055 12.268 13.451 40.122 15.304 56.923 15.304 2.56 0 5.205-.193 7.759-.367 3.169-.215 6.39-.42 9.567-.42h11.428v63.678h-29.542c-35.334 0-84.557-4.215-110.62-31.336-26.855-27.945-29.965-85.302-29.965-121.721v-93.98c0-23.16-2.578-57.652-18.978-75.825-11.171-12.38-28.996-17.319-44.983-19.288l-10.03-1.235v-62.078l10.03-1.235c15.955-1.965 33.837-6.886 44.968-19.271 16.408-18.255 18.993-52.87 18.993-76.104v-93.456c0-36.736 3.194-93.741 30.042-122.058 26.222-27.657 74.738-32.048 110.543-32.048h29.542v63.676h-25.604c-17.28 0-47.003 1.777-59.746 15.51-13.39 14.43-14.67 52.774-14.67 71.112v93.327c0 30.04-2.372 71.698-18.318 98.058-9.147 15.118-22.414 26.033-37.531 33.96zm943.503 0c-15.117-7.926-28.384-18.841-37.53-33.96-15.947-26.359-18.32-68.018-18.32-98.058v-93.326c0-18.339-1.279-56.682-14.669-71.113-12.743-13.733-42.466-15.509-59.746-15.509h-25.604v-63.677h29.542c35.805 0 84.321 4.392 110.543 32.048 26.848 28.317 30.042 85.322 30.042 122.058v93.456c0 23.234 2.585 57.85 18.992 76.105 11.132 12.385 29.014 17.305 44.969 19.27l10.03 1.236v62.078l-10.03 1.235c-15.987 1.969-33.812 6.908-44.983 19.287-16.4 18.174-18.978 52.666-18.978 75.825v93.98c0 36.42-3.11 93.776-29.964 121.721-26.064 27.122-75.287 31.336-110.621 31.336h-29.542v-63.677h11.428c3.176 0 6.398.205 9.567.42 2.554.173 5.198.367 7.759.367 16.801 0 44.655-1.853 56.923-15.305 13.113-14.377 14.342-52.887 14.342-71.055v-92.8c0-30.069 2.357-71.803 18.32-98.189 9.144-15.117 22.4-25.96 37.53-33.752z"
          fill="#ef5350"/>
    <path d="m1151 1170.1v-58.04h227.32v58.04z" fill="#03a9f4"/>
    <path class="fil5"
          d="m684.36 1023.6 122.5 80.28v76.32l-189.3-128.07v-57.733l189.3-126.49v76.109zm450.56 0-122.35-79.59v-76.106l189.31 126.49v57.733l-189.31 128.07v-76.31z"/>
    <path d="m1018 789.89-150.38 485.91-66.206-17.69 150.38-485.91z" fill="#455a64"/>
    </svg>
