<?xml version="1.0" encoding="UTF-8"?>
<!DOCTYPE svg PUBLIC "-//W3C//DTD SVG 1.1//EN" "http://www.w3.org/Graphics/SVG/1.1/DTD/svg11.dtd">
<!-- Creator: CorelDRAW -->
<svg xmlns="http://www.w3.org/2000/svg" xml:space="preserve" width="2048px" height="2048px"
     style="shape-rendering:geometricPrecision; text-rendering:geometricPrecision; image-rendering:optimizeQuality; fill-rule:evenodd; clip-rule:evenodd"
     viewBox="0 0 2048 2048"
>
 <defs>
  <style type="text/css">
   <![CDATA[
    .fil2 {fill:none}
    .fil4 {fill:#7B838E}
    .fil3 {fill:#8E96A3}
    .fil1 {fill:#9FA8DA}
    .fil0 {fill:#C5CAE9}
    .fil10 {fill:#E3F2FD}
    .fil11 {fill:#FF6F00}
    .fil9 {fill:#FFD54F}
    .fil5 {fill:#415065;fill-rule:nonzero}
    .fil8 {fill:#7CB342;fill-rule:nonzero}
    .fil6 {fill:#EF5350;fill-rule:nonzero}
    .fil7 {fill:#FFAB40;fill-rule:nonzero}
   ]]>
  </style>
   <clipPath id="id0">
    <path d="M1024 -0.0011811c565.539,0 1024,458.462 1024,1024 0,565.539 -458.462,1024 -1024,1024 -565.539,0 -1024,-458.462 -1024,-1024 0,-565.539 458.462,-1024 1024,-1024z"/>
   </clipPath>
 </defs>
 <g id="Layer_x0020_1">
  <metadata id="CorelCorpID_0Corel-Layer"/>
  <path class="fil0" d="M1024 -0.0011811c565.539,0 1024,458.462 1024,1024 0,565.539 -458.462,1024 -1024,1024 -565.539,0 -1024,-458.462 -1024,-1024 0,-565.539 458.462,-1024 1024,-1024z"/>
  <g style="clip-path:url(#id0)">
   <g id="_289374968">
    <g>
     <polygon id="_2886163121" class="fil1" points="1578.67,472.491 2714.55,1608.37 2715.9,1610.17 2717.07,1612.09 2718.05,1614.13 2718.83,1616.28 2719.41,1618.51 2719.76,1620.83 2719.88,1623.22 1584,487.334 1583.88,484.948 1583.53,482.631 1582.95,480.395 1582.17,478.251 1581.18,476.211 1580.02,474.287 "/>
     <polygon id="_288616360" class="fil1" points="1584,487.334 2719.88,1623.22 2719.88,1833.22 1584,697.335 "/>
     <polygon id="_288618232" class="fil1" points="1584,697.335 2719.88,1833.22 2719.88,1879.88 1584,743.999 "/>
     <polygon id="_288618400" class="fil1" points="1584,743.999 2719.88,1879.88 2719.88,2696.55 1584,1560.67 "/>
     <polygon id="_288618256" class="fil1" points="1584,1560.67 2719.88,2696.55 2719.76,2698.93 2719.41,2701.25 2718.83,2703.49 2718.05,2705.63 2717.07,2707.67 2715.9,2709.59 2714.55,2711.39 2713.05,2713.05 2711.39,2714.55 2709.59,2715.9 2707.67,2717.07 2705.63,2718.05 2703.49,2718.83 2701.25,2719.41 2698.93,2719.76 2696.55,2719.88 1560.67,1584 1563.05,1583.88 1565.37,1583.53 1567.61,1582.95 1569.75,1582.17 1571.79,1581.18 1573.71,1580.02 1575.51,1578.67 1577.17,1577.17 1578.67,1575.51 1580.02,1573.71 1581.18,1571.79 1582.17,1569.75 1582.95,1567.61 1583.53,1565.37 1583.88,1563.05 "/>
     <polygon id="_288617920" class="fil1" points="1560.67,1584 2696.55,2719.88 1623.22,2719.88 487.334,1584 "/>
     <polygon id="_288617944" class="fil1" points="487.334,1584 1623.22,2719.88 1620.83,2719.76 1618.51,2719.41 1616.28,2718.83 1614.13,2718.05 1612.09,2717.07 1610.17,2715.9 1608.37,2714.55 472.491,1578.67 474.287,1580.02 476.211,1581.18 478.251,1582.17 480.395,1582.95 482.631,1583.53 484.948,1583.88 "/>
    </g>
    <path id="_289374992" class="fil1" d="M1560.67 463.999c12.887,0 23.3351,10.448 23.3351,23.3351l0 210.001 0 46.6642 0 816.667c0,12.887 -10.448,23.3351 -23.3351,23.3351l-1073.33 0c-12.887,0 -23.3351,-10.448 -23.3351,-23.3351l0 -816.667 0 -46.6654 0 -210c0,-12.887 10.448,-23.3351 23.3351,-23.3351l1073.33 0z"/>
   </g>
  </g>
  <path class="fil2" d="M1024 -0.0011811c565.539,0 1024,458.462 1024,1024 0,565.539 -458.462,1024 -1024,1024 -565.539,0 -1024,-458.462 -1024,-1024 0,-565.539 458.462,-1024 1024,-1024z"/>
  <path class="fil3" d="M1584 697.335l0 863.331c0,12.887 -10.448,23.3351 -23.3351,23.3351l-1073.33 0c-12.887,0 -23.3351,-10.448 -23.3351,-23.3351l0 -863.331 1120 0z"/>
  <polygon class="fil4" points="1584,697.335 1584,743.999 463.999,743.999 463.999,697.335 "/>
  <path class="fil5" d="M487.334 463.999l1073.33 0c12.887,0 23.3351,10.448 23.3351,23.3351l0 210 -1120 0 0 -210c0,-12.887 10.448,-23.3351 23.3351,-23.3351z"/>
  <polygon class="fil6" points="1397.44,532.809 1397.44,626.141 1490.77,626.141 1490.77,532.809 "/>
  <polygon class="fil7" points="1070.55,626.141 1163.89,626.141 1163.89,532.809 1070.55,532.809 "/>
  <polygon class="fil8" points="1233.76,532.809 1233.76,626.141 1327.09,626.141 1327.09,532.809 "/>
  <path class="fil9" d="M916.383 1105.39l215.235 0c19.6311,0 37.4658,8.01733 50.3811,20.9339 12.9165,12.9165 20.9339,30.75 20.9339,50.3811l0 181.67c0,19.6311 -8.01733,37.4658 -20.9339,50.3811 -12.9154,12.9165 -30.75,20.9339 -50.3811,20.9339l-215.235 0c-19.6323,0 -37.4658,-8.01733 -50.3823,-20.9339 -12.9154,-12.9154 -20.9339,-30.75 -20.9339,-50.3811l0 -181.67c0,-19.6311 8.01851,-37.4646 20.9339,-50.3811 12.9165,-12.9165 30.75,-20.9339 50.3823,-20.9339zm49.8863 100.804c0,-10.6831 -8.66103,-19.3441 -19.3453,-19.3441 -10.6831,0 -19.3441,8.66103 -19.3441,19.3441l0 -0.477166c0,10.6831 8.66103,19.3441 19.3441,19.3441 10.6843,0 19.3453,-8.66103 19.3453,-19.3441l0 0.477166zm154.152 0c0,-10.6831 -8.66103,-19.3441 -19.3441,-19.3441 -10.6843,0 -19.3453,8.66103 -19.3453,19.3441l0 -0.477166c0,10.6831 8.66103,19.3441 19.3453,19.3441 10.6831,0 19.3441,-8.66103 19.3441,-19.3441l0 0.477166zm-84.3426 -4.52481c0,-6.66969 -5.40827,-12.078 -12.0791,-12.078 -6.66969,0 -12.078,5.40827 -12.078,12.078l-7.26615 72.4701c0,10.6843 8.66103,19.3453 19.3441,19.3453 10.6843,0 19.3453,-8.66103 19.3453,-19.3453l-7.26615 -72.4701zm72.6308 101.76c-28.3075,12.1193 -54.1347,26.8441 -85.643,26.8441 -29.0386,0 -57.8871,-13.5272 -85.1351,-23.2063 4.33937,44.1402 51.0355,61.8957 85.1351,61.8957 36.378,0 82.852,-28.8095 85.643,-65.5335z"/>
  <path class="fil10" d="M1475.41 872.299l0 -19.7185 15.2563 0 0 15.5941c0,8.40946 -0.836221,14.4992 -2.45315,18.2043 -2.26417,5.09056 -5.79567,8.9256 -10.5933,11.5016l-3.47599 -6.7004c2.85709,-1.38543 4.95945,-3.54449 6.36024,-6.54095 1.40197,-2.99646 2.18386,-7.0878 2.31851,-12.3402l-7.4126 0zm-24.4736 0l0 -19.7185 15.2291 0 0 15.5941c0,8.40946 -0.809056,14.4992 -2.42599,18.2043 -2.26417,5.09056 -5.79567,8.9256 -10.5933,11.5016l-3.47717 -6.7004c2.82992,-1.38543 4.95945,-3.54449 6.36142,-6.54095 1.40197,-2.99646 2.15669,-7.0878 2.31851,-12.3402l-7.4126 0zm-76.6855 70.0453c0,12.8563 2.26417,22.4575 6.79252,28.8047 4.52835,6.34725 9.86576,9.53741 16.0382,9.53741 6.19961,0 11.4827,-3.06024 15.8221,-9.11812 4.33937,-6.05788 6.52323,-15.3366 6.52323,-27.8055 0,-13.7268 -2.21103,-23.778 -6.63071,-30.1902 -4.42087,-6.4441 -9.86576,-9.63426 -16.3618,-9.63426 -6.30709,0 -11.5902,3.09331 -15.8221,9.24804 -4.23071,6.15473 -6.36142,15.8835 -6.36142,29.1579zm44.9327 50.0374l0 -12.6626c-5.30906,9.95552 -13.1268,14.9185 -23.4496,14.9185 -6.68386,0 -12.8303,-2.19095 -18.437,-6.60473 -5.6067,-4.38307 -9.94607,-10.5366 -13.0453,-18.463 -3.07323,-7.89449 -4.60985,-16.9477 -4.60985,-27.2256 0,-9.98741 1.40197,-19.0736 4.17874,-27.2244 2.80276,-8.15197 6.98032,-14.4024 12.561,-18.7205 5.57835,-4.34882 11.8323,-6.54095 18.7323,-6.54095 5.03977,0 9.54213,1.28976 13.4764,3.83504 3.9626,2.54528 7.17048,5.863 9.65079,9.95552l0 -49.6512 14.1236 0 0 138.384 -13.1811 0zm-90.6473 0l0 -138.384 14.2051 0 0 138.384 -14.2051 0zm-53.6918 0l0 -100.236 12.776 0 0 15.176c3.26221,-7.08898 6.27993,-11.7921 9.0567,-14.048 2.74961,-2.25591 5.79567,-3.41575 9.11103,-3.41575 4.79764,0 9.64961,1.83662 14.6091,5.47796l-4.90512 15.7878c-3.45,-2.48032 -6.92835,-3.7063 -10.4043,-3.7063 -3.12756,0 -5.90315,1.12795 -8.38347,3.35079 -2.47914,2.25591 -4.23189,5.34922 -5.28307,9.31182 -1.59095,6.02481 -2.37166,12.6307 -2.37166,19.8154l0 52.4859 -14.2051 0zm-80.4851 -50.1331c0,12.8551 2.34449,22.4563 7.03465,28.8366 4.69016,6.41103 10.5933,9.60119 17.6823,9.60119 7.06182,0 12.9378,-3.22323 17.628,-9.63426 4.663,-6.41103 7.00867,-16.2071 7.00867,-29.3516 0,-12.4051 -2.34567,-21.8126 -7.063,-28.1918 -4.71615,-6.38032 -10.565,-9.57048 -17.5736,-9.57048 -7.08898,0 -12.9921,3.19016 -17.6823,9.53741 -4.69016,6.34725 -7.03465,15.9496 -7.03465,28.7729zm-14.6091 0c0,-18.5587 4.31339,-32.3162 12.965,-41.2418 7.19764,-7.41024 15.9839,-11.1484 26.361,-11.1484 11.537,0 20.9705,4.51181 28.2744,13.565 7.33229,9.02127 10.9701,21.4902 10.9701,37.4079 0,12.9189 -1.61575,23.0681 -4.85079,30.4465 -3.23504,7.41142 -7.95119,13.1469 -14.1236,17.237 -6.19961,4.09252 -12.939,6.12284 -20.2701,6.12284 -11.7248,0 -21.2126,-4.47992 -28.4634,-13.5012 -7.25079,-8.98938 -10.8626,-21.9402 -10.8626,-38.8878zm-122.399 50.1331l-30.7276 -138.384 15.7146 0 17.628 90.6993c1.8874,9.50434 3.50315,18.9449 4.87914,28.3205 2.96457,-14.7886 4.68898,-23.2949 5.22874,-25.5815l22.0205 -93.4383 18.4914 0 16.5768 70.0465c4.1504,17.3658 7.14213,33.7004 9.00237,48.9733 1.4563,-8.73072 3.39567,-18.7831 5.76851,-30.0933l18.1406 -88.9264 15.4169 0 -31.7516 138.384 -14.7709 0 -24.3933 -105.422c-2.04921,-8.82875 -3.26221,-14.2417 -3.63898,-16.239 -1.21299,6.34725 -2.34449,11.7591 -3.39685,16.239l-24.5551 105.422 -15.6331 0zm-147.601 -50.1331c0,12.8551 2.34567,22.4563 7.03583,28.8366 4.69016,6.41103 10.5933,9.60119 17.6811,9.60119 7.063,0 12.939,-3.22323 17.6291,-9.63426 4.66181,-6.41103 7.00749,-16.2071 7.00749,-29.3516 0,-12.4051 -2.34567,-21.8126 -7.06182,-28.1918 -4.71733,-6.38032 -10.5661,-9.57048 -17.5748,-9.57048 -7.0878,0 -12.991,3.19016 -17.6811,9.53741 -4.69016,6.34725 -7.03583,15.9496 -7.03583,28.7729zm-14.6079 0c0,-18.5587 4.31221,-32.3162 12.9638,-41.2418 7.19764,-7.41024 15.9851,-11.1484 26.361,-11.1484 11.537,0 20.9717,4.51181 28.2756,13.565 7.33111,9.02127 10.9701,21.4902 10.9701,37.4079 0,12.9189 -1.61693,23.0681 -4.85197,30.4465 -3.23386,7.41142 -7.95119,13.1469 -14.1236,17.237 -6.19843,4.09252 -12.9378,6.12284 -20.2701,6.12284 -11.7236,0 -21.2126,-4.47992 -28.4634,-13.5012 -7.24961,-8.98938 -10.8614,-21.9402 -10.8614,-38.8878zm-30.9437 50.1331l0 -138.384 14.2039 0 0 138.384 -14.2039 0zm-35.9303 0l0 -138.384 14.2051 0 0 138.384 -14.2051 0zm-78.8953 -59.7674l46.8201 0c-0.620079,-8.40946 -2.42599,-14.7567 -5.36457,-18.9461 -4.52835,-6.53977 -10.4043,-9.8256 -17.6008,-9.8256 -6.52205,0 -12.0213,2.61024 -16.4681,7.82835 -4.44803,5.22048 -6.90119,12.2126 -7.38662,20.9433zm46.6583 27.4843l14.6894 2.15788c-2.31732,10.278 -6.60355,18.2362 -12.8575,23.9079 -6.27993,5.63741 -14.2854,8.47323 -24.0154,8.47323 -12.2646,0 -21.9945,-4.51181 -29.165,-13.5331 -7.19646,-9.02127 -10.7811,-21.6839 -10.7811,-37.9866 0,-16.8827 3.63898,-29.9646 10.8898,-39.2752 7.27678,-9.31182 16.6843,-13.9843 28.2744,-13.9843 11.2122,0 20.3776,4.57559 27.4666,13.6949 7.11497,9.11694 10.6736,21.9732 10.6736,38.5016 0,1.0311 -0.0271654,2.54528 -0.080315,4.54252l-62.5335 0c0.511418,11.0197 3.12638,19.461 7.81654,25.2921 4.69016,5.86418 10.5118,8.79686 17.5193,8.79686 5.20276,0 9.64961,-1.64291 13.3417,-4.92993 3.69331,-3.25394 6.60473,-8.47442 8.76142,-15.6579zm-171.913 32.2831l0 -138.384 15.3366 0 0 56.8359 60.1619 0 0 -56.8359 15.3366 0 0 138.384 -15.3366 0 0 -65.2123 -60.1619 0 0 65.2123 -15.3366 0zm-20.5122 -115.153l0 19.7185 -15.2563 0 0 -15.5622c0,-8.44135 0.863386,-14.5311 2.53347,-18.3331 2.21103,-5.02678 5.71418,-8.82875 10.513,-11.4047l3.47717 6.60473c-2.91142,1.44921 -5.04095,3.60827 -6.41575,6.47481 -1.34764,2.83583 -2.12953,7.02402 -2.29016,12.502l7.43859 0zm-24.4736 0l0 19.7185 -15.2563 0 0 -15.5622c0,-8.44135 0.836221,-14.5311 2.53347,-18.3331 2.21103,-5.02678 5.71418,-8.82875 10.5118,-11.4047l3.45 6.60473c-2.88307,1.44921 -5.0126,3.60827 -6.38741,6.47481 -1.3748,2.83583 -2.12953,7.02402 -2.29134,12.502l7.43977 0z"/>
  <path class="fil11" d="M1023.07 1330.27c-29.0386,0 -57.8871,-13.5272 -85.1351,-23.2063 4.33937,44.1402 51.0355,61.8957 85.1351,61.8957 36.378,0 82.852,-28.8095 85.643,-65.5335 -28.3075,12.1193 -54.1347,26.8441 -85.643,26.8441z"/>
  <path class="fil11" d="M1004.65 1274.14c0,10.6843 8.66103,19.3453 19.3441,19.3453 10.6843,0 19.3453,-8.66103 19.3453,-19.3453l-7.26615 -72.4701c0,-6.66969 -5.40827,-12.078 -12.0791,-12.078 -6.66969,0 -12.078,5.40827 -12.078,12.078l-7.26615 72.4701z"/>
  <path class="fil11" d="M946.924 1225.06c10.5236,0 19.0854,-8.40355 19.3453,-18.8669 0,-0.159449 -0.00236221,-0.318898 -0.00590552,-0.477166 -0.253937,-10.4634 -8.81575,-18.8669 -19.3394,-18.8669 -10.5224,0 -19.0843,8.40355 -19.3441,18.8669 0,0.159449 0.00236221,0.318898 0.00590552,0.477166 0.253937,10.4634 8.81575,18.8669 19.3382,18.8669z"/>
  <path class="fil11" d="M1081.74 1206.19c0.253937,10.4634 8.81575,18.8669 19.3394,18.8669 10.5224,0 19.0843,-8.40355 19.3441,-18.8669 0,-0.159449 -0.00236221,-0.318898 -0.00590552,-0.477166 -0.253937,-10.4634 -8.81575,-18.8669 -19.3382,-18.8669 -10.5236,0 -19.0854,8.40355 -19.3453,18.8669 0,0.159449 0.00236221,0.318898 0.00590552,0.477166z"/>
 </g>
</svg>
