<?xml version="1.0" encoding="UTF-8"?>
<svg xmlns="http://www.w3.org/2000/svg" xml:space="preserve" width="64px" height="64px"
     viewBox="1 0.7 4.9 5.3"
>
 <defs>
  <style type="text/css">
    .fil6 {fill:none}
    .fil5 {fill:#7CD2FA}
    .fil0 {fill:#BDBDBD;fill-rule:nonzero}
    .fil1 {fill:#BF360C;fill-rule:nonzero}
    .fil2 {fill:#E0E0E0;fill-rule:nonzero}
    .fil4 {fill:#F65725;fill-rule:nonzero}
    .fil3 {fill:#FF7043;fill-rule:nonzero}
  </style>
 </defs>
 <g id="Layer_x0020_1">
  <metadata id="CorelCorpID_0Corel-Layer"/>
  <path class="fil0" d="M5.38921 3.01257l0 2.82412 -3.93701e-006 0.106669 -0.106665 0c-2.33665,0 -1.40177,0 -3.73841,0l-0.106669 0 0 -0.106669 0 -2.82412 3.95175 0z"/>
  <polygon class="fil1" points="4.4335,0.883303 4.79966,0.883303 4.88324,0.883303 4.88324,1.00135 4.88324,1.77706 4.88324,1.89511 4.79966,1.89511 4.4335,1.89511 4.34991,1.89511 4.34991,1.77706 4.34991,1.00135 4.34991,0.883303 "/>
  <polygon class="fil2" points="5.38921,3.01257 5.38921,5.83669 5.3892,5.94336 5.28254,5.94336 3.9873,5.94336 3.9873,5.83669 3.9873,4.58463 3.9873,4.47796 3.88063,4.47796 2.94603,4.47796 2.83936,4.47796 2.83936,4.58463 2.83936,5.83669 2.83936,5.94336 1.54413,5.94336 1.43746,5.94336 1.43746,5.83669 1.43746,3.01257 "/>
  <polygon class="fil0" points="5.38921,3.01257 5.38921,3.2 1.43746,3.2 1.43746,3.01257 "/>
  <polygon class="fil3" points="5.39941,1.68177 5.90181,3.06336 0.924858,3.06336 1.42725,1.68177 "/>
  <path class="fil4" d="M5.1583 3.06336l-0.0866693 0 0 -1.38159 0.0866693 0 0 1.38159zm-0.378142 0l-0.0866693 0 0 -1.38159 0.0866693 0 0 1.38159zm-0.378142 0l-0.0866693 0 0 -1.38159 0.0866693 0 0 1.38159zm-0.378142 0l-0.0866693 0 0 -1.38159 0.0866693 0 0 1.38159zm-0.378142 0l-0.0866693 0 0 -1.38159 0.0866693 0 0 1.38159zm-0.378142 0l-0.0866693 0 0 -1.38159 0.0866693 0 0 1.38159zm-0.378142 0l-0.0866693 0 0 -1.38159 0.0866693 0 0 1.38159zm-0.378142 0l-0.0866693 0 0 -1.38159 0.0866693 0 0 1.38159zm-0.378142 0l-0.0866693 0 0 -1.38159 0.0866693 0 0 1.38159zm-0.378142 0l-0.0866693 0 0 -1.38159 0.0866693 0 0 1.38159z"/>
  <polygon class="fil5" points="4.37333,4.58666 4.79999,4.58666 4.90666,4.58666 4.90666,4.69333 4.90666,5.11999 4.90666,5.22666 4.79999,5.22666 4.37333,5.22666 4.26666,5.22666 4.26666,5.11999 4.26666,4.69333 4.26666,4.58666 "/>
  <polygon class="fil5" points="3.2,3.30666 3.62666,3.30666 3.73333,3.30666 3.73333,3.41333 3.73333,3.84 3.73333,3.94667 3.62666,3.94667 3.2,3.94667 3.09333,3.94667 3.09333,3.84 3.09333,3.41333 3.09333,3.30666 "/>
  <polygon class="fil5" points="4.37333,3.30666 4.79999,3.30666 4.90666,3.30666 4.90666,3.41333 4.90666,3.84 4.90666,3.94667 4.79999,3.94667 4.37333,3.94667 4.26666,3.94667 4.26666,3.84 4.26666,3.41333 4.26666,3.30666 "/>
  <polygon class="fil5" points="2.02667,3.30666 2.45333,3.30666 2.56,3.30666 2.56,3.41333 2.56,3.84 2.56,3.94667 2.45333,3.94667 2.02667,3.94667 1.92,3.94667 1.92,3.84 1.92,3.41333 1.92,3.30666 "/>
  <polygon class="fil5" points="2.02667,4.58666 2.45333,4.58666 2.56,4.58666 2.56,4.69333 2.56,5.11999 2.56,5.22666 2.45333,5.22666 2.02667,5.22666 1.92,5.22666 1.92,5.11999 1.92,4.69333 1.92,4.58666 "/>
  <g id="_250328680">
   <rect id="_250328968" class="fil6" width="6.82666" height="6.82666"/>
   <rect id="_250328440" class="fil6" x="0.853331" y="0.853331" width="5.12" height="5.12"/>
  </g>
 </g>
</svg>
