<?xml version="1.0" encoding="utf-8"?>
<svg viewBox="218.093 416.626 745.721 307.579" width="745.721" height="307.579" xmlns="http://www.w3.org/2000/svg">
  <path d="M 310.7 435.853 L 648.478 435.853 C 657.929 435.853 665.591 443.515 665.591 452.966 L 665.591 675.853 C 665.591 675.853 665.591 675.853 665.591 675.853 L 293.591 675.853 C 293.591 675.853 293.591 675.853 293.591 675.853 L 293.591 452.965 C 293.592 443.516 301.251 435.855 310.7 435.853 Z" style="fill: rgb(210, 220, 230); isolation: isolate;"/>
  <path d="M 310.7 435.853 L 648.478 435.853 C 657.929 435.853 665.591 443.515 665.591 452.966 L 665.591 675.853 C 665.591 675.853 665.591 675.853 665.591 675.853 L 293.591 675.853 C 293.591 675.853 293.591 675.853 293.591 675.853 L 293.591 452.965 C 293.592 443.516 301.251 435.855 310.7 435.853 Z" style="fill: none; stroke: rgb(40, 48, 53); stroke-linecap: round; stroke-linejoin: round; stroke-width: 6px; isolation: isolate;"/>
  <rect x="387.591" y="398.136" width="184" height="316" transform="matrix(0, 1, -1, 0, 1035.727066, 76.544999)" style="isolation: isolate; fill: rgb(101, 103, 195);"/>
  <line x1="505.007" y1="618.781" x2="557.007" y2="618.781" style="fill: rgb(255, 255, 255); stroke: rgb(255, 255, 255); stroke-linecap: round; stroke-linejoin: round; stroke-width: 6px; opacity: 0.3; isolation: isolate;"/>
  <g style="opacity: 0.3; isolation: isolate;">
    <path d="M631.78,561.585a4.464,4.464,0,0,1,4.547,3.143V553.273a12.25,12.25,0,0,0-3.38-.492H631.78q-3.774,0-3.773,3.773V557.9C628.007,560.327,629.264,561.585,631.78,561.585Z" style="fill:#fff"/>
    <path d="M636.327,616.494a4.472,4.472,0,0,1-4.547,3.12q-3.774,0-3.773,3.772v1.348q0,3.772,3.773,3.773h1.167a12.25,12.25,0,0,0,3.38-.492Z" style="fill:#fff"/>
  </g>
  <rect x="387.591" y="398.136" width="184" height="316" transform="matrix(0, 1, -1, 0, 1035.727066, 76.544999)" style="fill: none; stroke: rgb(40, 48, 53); stroke-linecap: round; stroke-linejoin: round; stroke-width: 6px; isolation: isolate;"/>
  <path d="M 252.543 676 L 706.643 676 C 708.852 676 710.643 677.791 710.643 680 L 710.643 684.791 C 710.643 695.837 701.689 704.791 690.643 704.791 L 268.543 704.791 C 257.497 704.791 248.543 695.837 248.543 684.791 L 248.543 680 C 248.543 677.791 250.334 676 252.543 676 Z" style="fill: rgb(229, 229, 229); isolation: isolate;"/>
  <path d="M 690.639 695.787 L 268.539 695.787 C 258.626 695.78 250.216 688.508 248.778 678.7 C 248.627 679.117 248.548 679.557 248.543 680 L 248.543 684.791 C 248.543 695.837 257.497 704.791 268.543 704.791 L 690.643 704.791 C 701.689 704.791 710.643 695.837 710.643 684.791 L 710.643 680 C 710.638 679.557 710.559 679.117 710.408 678.7 C 708.97 688.511 700.555 695.784 690.639 695.787 Z" style="fill: rgb(207, 209, 208); isolation: isolate;"/>
  <path d="M 252.543 676 L 706.643 676 C 708.852 676 710.643 677.791 710.643 680 L 710.643 684.791 C 710.643 695.837 701.689 704.791 690.643 704.791 L 268.543 704.791 C 257.497 704.791 248.543 695.837 248.543 684.791 L 248.543 680 C 248.543 677.791 250.334 676 252.543 676 Z" style="fill: none; stroke: rgb(40, 48, 53); stroke-linecap: round; stroke-linejoin: round; stroke-width: 6px; isolation: isolate;"/>
  <path d="M 437.591 675.853 L 521.591 675.853 C 521.591 675.853 521.591 675.853 521.591 675.853 C 521.591 680.271 518.009 683.853 513.591 683.853 L 445.591 683.853 C 441.173 683.853 437.591 680.271 437.591 675.853 C 437.591 675.853 437.591 675.853 437.591 675.853 Z" style="fill: rgb(104, 107, 109); isolation: isolate;"/>
  <path d="M 437.591 675.853 L 521.591 675.853 C 521.591 675.853 521.591 675.853 521.591 675.853 C 521.591 680.271 518.009 683.853 513.591 683.853 L 445.591 683.853 C 441.173 683.853 437.591 680.271 437.591 675.853 C 437.591 675.853 437.591 675.853 437.591 675.853 Z" style="fill: none; stroke: rgb(40, 48, 53); stroke-linecap: round; stroke-linejoin: round; stroke-width: 4px; isolation: isolate;"/>
  <circle cx="478.804" cy="449.619" r="8" style="fill: rgb(104, 107, 109); isolation: isolate;"/>
  <circle cx="478.804" cy="449.619" r="8" style="fill: none; stroke: rgb(40, 48, 53); stroke-linecap: round; stroke-linejoin: round; stroke-width: 4px; isolation: isolate;"/>
  <path d="M 721.134 704.886 C 721.265 682.57 745.505 668.764 764.766 680.036 C 773.6 685.206 779.053 694.651 779.113 704.886 L 721.134 704.886 Z" style="fill: rgb(229, 229, 229); isolation: isolate;"/>
  <path d="M 750.124 695.729 C 758.511 695.809 766.524 692.259 772.1 685.993 C 760.541 672.532 739.706 672.532 728.147 685.993 C 733.723 692.259 741.736 695.809 750.124 695.729 Z" style="fill: rgb(207, 209, 208); isolation: isolate;"/>
  <path d="M 721.134 704.886 C 721.265 682.57 745.505 668.764 764.766 680.036 C 773.6 685.206 779.053 694.651 779.113 704.886 L 721.134 704.886 Z" style="fill: none; stroke: rgb(40, 48, 53); stroke-linecap: round; stroke-linejoin: round; stroke-width: 6px; isolation: isolate;"/>
  <rect x="367.007" y="499.781" width="168" height="134" rx="8.008" style="opacity: 0.14; mix-blend-mode: multiply; isolation: isolate;"/>
  <rect x="359.174" y="492.781" width="168" height="134" rx="8.008" style="fill: rgb(53, 63, 73); isolation: isolate;"/>
  <rect x="359.174" y="492.781" width="168" height="134" rx="8.008" style="fill: none; stroke: rgb(40, 48, 53); stroke-linecap: round; stroke-linejoin: round; stroke-width: 4px; isolation: isolate;"/>
  <path d="M 367.181 492.781 L 519.166 492.781 C 523.589 492.781 527.174 496.366 527.174 500.789 L 527.174 512.781 C 527.174 512.781 527.174 512.781 527.174 512.781 L 359.174 512.781 C 359.174 512.781 359.174 512.781 359.174 512.781 L 359.174 500.789 C 359.174 496.367 362.759 492.782 367.181 492.781 Z" style="fill: rgb(234, 238, 239); isolation: isolate;"/>
  <path d="M 367.181 492.781 L 519.166 492.781 C 523.589 492.781 527.174 496.366 527.174 500.789 L 527.174 512.781 C 527.174 512.781 527.174 512.781 527.174 512.781 L 359.174 512.781 C 359.174 512.781 359.174 512.781 359.174 512.781 L 359.174 500.789 C 359.174 496.367 362.759 492.782 367.181 492.781 Z" style="fill: none; stroke: rgb(40, 48, 53); stroke-linecap: round; stroke-linejoin: round; stroke-width: 4px; isolation: isolate;"/>
  <circle cx="373.507" cy="502.781" r="3.125" style="fill: rgb(40, 48, 53); opacity: 0.35; isolation: isolate;"/>
  <circle cx="383.34" cy="502.781" r="3.125" style="fill: rgb(40, 48, 53); opacity: 0.35; isolation: isolate;"/>
  <circle cx="392.674" cy="502.781" r="3.125" style="fill: rgb(40, 48, 53); opacity: 0.35; isolation: isolate;"/>
  <line x1="367.007" y1="519.781" x2="378.007" y2="519.781" style="fill: none; stroke: rgb(70, 187, 134); stroke-miterlimit: 10; stroke-width: 3px; isolation: isolate;"/>
  <line x1="382.007" y1="519.781" x2="412.007" y2="519.781" style="fill: none; stroke: rgb(70, 187, 134); stroke-miterlimit: 10; stroke-width: 3px; isolation: isolate;"/>
  <line x1="367.007" y1="527.781" x2="412.007" y2="527.781" style="fill: none; stroke: rgb(56, 154, 190); stroke-miterlimit: 10; stroke-width: 3px; isolation: isolate;"/>
  <line x1="376.007" y1="535.781" x2="398.007" y2="535.781" style="fill: none; stroke: rgb(229, 198, 137); stroke-miterlimit: 10; stroke-width: 3px; isolation: isolate;"/>
  <line x1="402.007" y1="535.781" x2="426.007" y2="535.781" style="fill: none; stroke: rgb(242, 243, 244); stroke-miterlimit: 10; stroke-width: 3px; isolation: isolate;"/>
  <line x1="388.007" y1="543.781" x2="434.007" y2="543.781" style="fill: none; stroke: rgb(242, 243, 244); stroke-miterlimit: 10; stroke-width: 3px; isolation: isolate;"/>
  <line x1="388.007" y1="551.781" x2="422.007" y2="551.781" style="fill: none; stroke: rgb(255, 164, 159); stroke-miterlimit: 10; stroke-width: 3px; isolation: isolate;"/>
  <line x1="376.007" y1="559.781" x2="426.007" y2="559.781" style="fill: none; stroke: rgb(242, 243, 244); stroke-miterlimit: 10; stroke-width: 3px; isolation: isolate;"/>
  <line x1="367.007" y1="566.781" x2="394.007" y2="566.781" style="fill: none; stroke: rgb(56, 154, 190); stroke-miterlimit: 10; stroke-width: 3px; isolation: isolate;"/>
  <g style="opacity: 0.3; isolation: isolate;">
    <path d="M599.643,605.522c0-3.952-1.528-6.736-4.582-8.443-2.156-1.168-3.054-2.067-3.054-4.132v-3.5c0-2.425,1.078-2.964,2.964-4.222,3.144-1.347,4.672-4.221,4.672-8.533v-7.636c0-6.108,2.245-10.6,5.479-12.486a15.02,15.02,0,0,1,8.264-2.785h1.168q3.772,0,3.773,3.773V558.9c0,2.425-1.258,3.683-3.773,3.683-3.5,0-5.21,2.515-5.21,7.635v9.432a11.959,11.959,0,0,1-6.557,11.139l-.809.269v.18a7.017,7.017,0,0,1,2.515,1.348c2.246,1.346,4.851,4.491,4.851,9.97v10.51c0,5.03,1.707,7.546,5.21,7.546q3.772,0,3.773,3.772v1.348q0,3.772-3.773,3.773h-1.168a15.02,15.02,0,0,1-8.264-2.785c-3.234-1.886-5.479-6.467-5.479-12.486Z" style="fill:#fff"/>
  </g>
  <rect x="793.741" y="574.886" width="96" height="130" rx="9.1" style="fill: rgb(229, 229, 229); isolation: isolate;"/>
  <path d="M 880.641 574.886 L 879.488 574.886 C 879.654 575.574 879.739 576.279 879.741 576.986 L 879.741 688.786 C 879.741 693.812 875.667 697.886 870.641 697.886 L 794 697.886 C 794.972 701.986 798.633 704.883 802.847 704.886 L 880.647 704.886 C 885.673 704.886 889.747 700.812 889.747 695.786 L 889.747 583.986 C 889.747 578.958 885.669 574.883 880.641 574.886 Z" style="fill: rgb(207, 209, 208); isolation: isolate;"/>
  <rect x="793.741" y="574.886" width="96" height="130" rx="9.1" style="fill: none; stroke: rgb(40, 48, 53); stroke-linecap: round; stroke-linejoin: round; stroke-width: 6px; isolation: isolate;"/>
  <path d="M 857.741 567.342 L 849.741 567.342 L 849.741 564.342 C 849.741 558.184 843.074 554.335 837.741 557.414 C 835.266 558.843 833.741 561.484 833.741 564.342 L 833.741 567.342 L 825.741 567.342 C 819.583 567.342 815.734 574.009 818.813 579.342 C 820.242 581.817 822.883 583.342 825.741 583.342 L 857.741 583.342 C 863.899 583.342 867.748 576.675 864.669 571.342 C 863.24 568.867 860.599 567.342 857.741 567.342 Z" style="fill: rgb(247, 182, 111); isolation: isolate;"/>
  <path d="M 861.458 568.262 C 862.85 573.347 859.013 578.359 853.741 578.342 L 821.741 578.342 C 820.446 578.343 819.17 578.027 818.024 577.423 C 818.964 580.913 822.127 583.339 825.741 583.342 L 857.741 583.342 C 863.899 583.336 867.742 576.666 864.658 571.335 C 863.902 570.03 862.793 568.964 861.458 568.262 Z" style="fill: rgb(237, 167, 98); isolation: isolate;"/>
  <path d="M 845.741 559.342 L 845.741 562.342 L 849.479 562.342 C 848.915 560.157 847.455 558.313 845.458 557.262 C 845.644 557.94 845.739 558.639 845.741 559.342 Z" style="fill: rgb(237, 167, 98); isolation: isolate;"/>
  <path d="M 857.741 567.342 L 849.741 567.342 L 849.741 564.342 C 849.741 558.184 843.074 554.335 837.741 557.414 C 835.266 558.843 833.741 561.484 833.741 564.342 L 833.741 567.342 L 825.741 567.342 C 819.583 567.342 815.734 574.009 818.813 579.342 C 820.242 581.817 822.883 583.342 825.741 583.342 L 857.741 583.342 C 863.899 583.342 867.748 576.675 864.669 571.342 C 863.24 568.867 860.599 567.342 857.741 567.342 Z" style="fill: none; stroke: rgb(40, 48, 53); stroke-linecap: round; stroke-linejoin: round; stroke-width: 6px; isolation: isolate;"/>
  <circle cx="841.741" cy="604.009" r="8.333" style="fill: rgb(142, 175, 191); isolation: isolate;"/>
  <circle cx="841.741" cy="604.009" r="8.333" style="fill: none; stroke: rgb(40, 48, 53); stroke-linecap: round; stroke-linejoin: round; stroke-width: 6px; isolation: isolate;"/>
  <line x1="809.964" y1="629.676" x2="829.964" y2="629.676" style="fill: none; stroke: rgb(40, 48, 53); stroke-linecap: round; stroke-linejoin: round; stroke-width: 6px; isolation: isolate;"/>
  <line x1="809.964" y1="656.842" x2="829.964" y2="656.842" style="fill: none; stroke: rgb(40, 48, 53); stroke-linecap: round; stroke-linejoin: round; stroke-width: 6px; isolation: isolate;"/>
  <line x1="809.964" y1="684.009" x2="829.964" y2="684.009" style="fill: none; stroke: rgb(40, 48, 53); stroke-linecap: round; stroke-linejoin: round; stroke-width: 6px; isolation: isolate;"/>
  <polyline points="843.178 628.606 848.392 635.541 863.996 623.811" style="fill: none; stroke: rgb(139, 175, 193); stroke-linecap: round; stroke-linejoin: round; stroke-width: 4px; isolation: isolate;"/>
  <polyline points="843.178 655.772 848.392 662.708 863.996 650.977" style="fill: none; stroke: rgb(139, 175, 193); stroke-linecap: round; stroke-linejoin: round; stroke-width: 4px; isolation: isolate;"/>
  <rect x="894.104" y="630.914" width="10" height="64" transform="matrix(0.990457, -0.137825, 0.137825, 0.990457, -82.787004, 130.246996)" style="fill: rgb(59, 188, 136); isolation: isolate;"/>
  <rect x="894.104" y="630.914" width="10" height="64" transform="matrix(0.990457, -0.137825, 0.137825, 0.990457, -82.787004, 130.246996)" style="fill: none; stroke: rgb(40, 48, 53); stroke-linecap: round; stroke-linejoin: round; stroke-width: 4px; isolation: isolate;"/>
  <polygon points="908.467 693.92 898.562 695.298 904.893 704.513 908.467 693.92" style="fill: rgb(229, 229, 229); isolation: isolate;"/>
  <polygon points="908.467 693.92 898.562 695.298 904.893 704.513 908.467 693.92" style="fill: none; stroke: rgb(40, 48, 53); stroke-linecap: round; stroke-linejoin: round; stroke-width: 4px; isolation: isolate;"/>
  <rect x="890.624" y="621.001" width="5.997" height="9.996" transform="matrix(0.990424, -0.138059, 0.138059, 0.990424, -77.783998, 129.195009)" style="fill: rgb(229, 229, 229); isolation: isolate;"/>
  <rect x="890.624" y="621.001" width="5.997" height="9.996" transform="matrix(0.990424, -0.138059, 0.138059, 0.990424, -77.783998, 129.195009)" style="fill: none; stroke: rgb(40, 48, 53); stroke-linecap: round; stroke-linejoin: round; stroke-width: 4px; isolation: isolate;"/>
  <path d="M 908.6 655.545 C 907.48 653.7 906.686 651.676 906.253 649.561 C 905.148 644.128 907.876 641.022 906.401 637.93 C 905.813 636.697 905.528 635.013 901.111 634.375" style="fill: none; stroke: rgb(40, 48, 53); stroke-linecap: round; stroke-linejoin: round; stroke-width: 4px; isolation: isolate;"/>
  <line x1="920.75" y1="704.886" x2="946.5" y2="704.886" style="fill: none; stroke: rgb(40, 48, 53); stroke-linecap: round; stroke-linejoin: round; stroke-width: 6px; isolation: isolate;"/>
  <line x1="234.333" y1="704.886" x2="909.5" y2="704.886" style="fill: none; stroke: rgb(40, 48, 53); stroke-linecap: round; stroke-linejoin: round; stroke-width: 6px; isolation: isolate;"/>
</svg>