<?xml version="1.0" encoding="utf-8"?>
<!-- Generator: Adobe Illustrator 16.0.0, SVG Export Plug-In . SVG Version: 6.00 Build 0)  -->
<!DOCTYPE svg PUBLIC "-//W3C//DTD SVG 1.1//EN" "http://www.w3.org/Graphics/SVG/1.1/DTD/svg11.dtd">
<svg version="1.1" id="icons" xmlns="http://www.w3.org/2000/svg" x="0px" y="0px"
     width="64px" height="64px" viewBox="0 0 64 64" enable-background="new 0 0 64 64" xml:space="preserve">
<g>
	<path fill="#434A54" d="M32,6.006c-0.553,0-1-0.447-1-1V2c0-0.553,0.447-1,1-1s1,0.447,1,1v3.006C33,5.559,32.553,6.006,32,6.006z"
		/>
	<path fill="#545C66" d="M26.998,13.002c-0.201,0-0.404-0.061-0.58-0.186c-0.45-0.322-0.554-0.945-0.232-1.395l5.001-6.998
		c0.321-0.449,0.946-0.553,1.395-0.232c0.45,0.322,0.554,0.945,0.232,1.395l-5.001,6.998C27.617,12.857,27.311,13.002,26.998,13.002
		z"/>
	<path fill="#545C66" d="M37.002,13.002c-0.313,0-0.619-0.145-0.814-0.418l-5.001-6.998c-0.321-0.449-0.218-1.072,0.232-1.395
		c0.449-0.322,1.074-0.217,1.395,0.232l5.001,6.998c0.321,0.449,0.218,1.072-0.232,1.395C37.406,12.941,37.203,13.002,37.002,13.002
		z"/>
	<path fill="#AAB2BD" d="M37.001,27.014H26.999c-0.553,0-1-0.447-1-1V14.002c0-0.553,0.447-1,1-1s1,0.447,1,1v11.012h8.002V14.002
		c0-0.553,0.447-1,1-1s1,0.447,1,1v12.012C38.001,26.566,37.554,27.014,37.001,27.014z"/>
	<path fill="#CCD1D9" d="M2,63c-0.553,0-1-0.447-1-1V37c0-0.553,0.447-1,1-1s1,0.447,1,1v25C3,62.553,2.553,63,2,63z"/>
	<path fill="#CCD1D9" d="M62,63c-0.553,0-1-0.447-1-1V37c0-0.553,0.447-1,1-1s1,0.447,1,1v25C63,62.553,62.553,63,62,63z"/>
	<rect x="6" y="42.01" fill="#4A89DC" width="4" height="5"/>
	<path fill="#CCD1D9" d="M22,37v25H2V37H22z M18,56.02v-5h-4v5H18z M18,47.01v-5h-4v5H18z M10,56.02v-5H6v5H10z M10,47.01v-5H6v5H10
		z"/>
	<rect x="14" y="42.01" fill="#4A89DC" width="4" height="5"/>
	<rect x="6" y="51.02" fill="#4A89DC" width="4" height="5"/>
	<rect x="14" y="51.02" fill="#4A89DC" width="4" height="5"/>
	<path fill="#DA4453" d="M17,28.01c0.55,0,1,0.449,1,1V32c0,0.549-0.45,1-1,1h-1.04c-0.55,0-1-0.451-1-1v-2.99c0-0.551,0.45-1,1-1
		H17z"/>
	<polygon fill="#ED5565" points="26,33 27,33 22,37 2,37 1,37 2,33 14.96,33 18,33 	"/>
	<polygon fill="#656D78" points="38,12.01 38,14.01 37,14.01 32,14.01 27,14.01 26,14.01 26,12.01 27,12.01 37,12.01 	"/>
	<polygon fill="#545C66" points="32,5.01 37,12.01 27,12.01 	"/>
	<path fill="#FFCE54" d="M32,17.01c1.11,0,2,0.891,2,2v2h-2h-2v-2C30,17.9,30.9,17.01,32,17.01z"/>
	<path fill="#DA4453" d="M48.04,28.01c0.55,0,1,0.449,1,1V32c0,0.549-0.45,1-1,1H47c-0.55,0-1-0.451-1-1v-2.99c0-0.551,0.45-1,1-1
		H48.04z"/>
	<rect x="34.01" y="42.01" fill="#5D9CEC" width="4" height="5"/>
	<rect x="26.003" y="42.01" fill="#5D9CEC" width="4" height="5"/>
	<polygon fill="#ED5565" points="62,33 63,37 62,37 42,37 37,33 38,33 46,33 49.04,33 	"/>
	<path fill="#CCD1D9" d="M62,37v25H42V37H62z M58,56.02v-5h-4v5H58z M58,47.01v-5h-4v5H58z M50,56.02v-5h-4v5H50z M50,47.01v-5h-4v5
		H50z"/>
	<rect x="54" y="42.01" fill="#4A89DC" width="4" height="5"/>
	<path fill="#5D9CEC" d="M32,34c1.11,0,2,0.9,2,2c0,1.109-0.89,2-2,2c-1.1,0-2-0.891-2-2C30,34.9,30.9,34,32,34z"/>
	<polygon fill="#CCD1D9" points="32,29 27,33 26,33 26,26.02 27,26.02 37,26.02 38,26.02 38,33 37,33 	"/>
	<rect x="46" y="51.02" fill="#4A89DC" width="4" height="5"/>
	<rect x="46" y="42.01" fill="#4A89DC" width="4" height="5"/>
	<rect x="54" y="51.02" fill="#4A89DC" width="4" height="5"/>
	<path fill="#E6E9ED" d="M42,37v25h-3.99V51.02H32h-6V62h-4V37l5-4l5-4l5,4L42,37z M38.01,47.01v-5h-4v5H38.01z M34,36
		c0-1.1-0.89-2-2-2c-1.1,0-2,0.9-2,2c0,1.109,0.9,2,2,2C33.11,38,34,37.109,34,36z M30.01,47.01v-5h-4v5H30.01z"/>
	<path fill="#ED5565" d="M1.001,37.998c-0.08,0-0.162-0.01-0.243-0.029c-0.536-0.135-0.861-0.678-0.729-1.213l0.998-4
		c0.135-0.537,0.677-0.859,1.213-0.729c0.536,0.133,0.861,0.676,0.729,1.213l-0.998,4C1.856,37.693,1.449,37.998,1.001,37.998z"/>
	<path fill="#ED5565" d="M62.999,37.998c-0.448,0-0.855-0.305-0.97-0.758l-0.998-4c-0.133-0.537,0.192-1.08,0.729-1.213
		c0.535-0.131,1.078,0.191,1.213,0.729l0.998,4c0.133,0.535-0.192,1.078-0.729,1.213C63.161,37.988,63.079,37.998,62.999,37.998z"/>
	<path fill="#ED5565" d="M27.003,33.998H1.998c-0.553,0-1-0.447-1-1s0.447-1,1-1h25.005c0.553,0,1,0.447,1,1
		S27.556,33.998,27.003,33.998z"/>
	<path fill="#ED5565" d="M22.001,37.998H1c-0.553,0-1-0.447-1-1s0.447-1,1-1h21.001c0.553,0,1,0.447,1,1
		S22.554,37.998,22.001,37.998z"/>
	<path fill="#ED5565" d="M63,38H42.001c-0.553,0-1-0.447-1-1s0.447-1,1-1H63c0.553,0,1,0.447,1,1S63.553,38,63,38z"/>
	<path fill="#ED5565" d="M62.002,33.998H37c-0.553,0-1-0.447-1-1s0.447-1,1-1h25.002c0.553,0,1,0.447,1,1
		S62.555,33.998,62.002,33.998z"/>
	<path fill="#CCD1D9" d="M37.997,33.998c-0.553,0-1-0.447-1-1v-5.984h-9.994v5.984c0,0.553-0.447,1-1,1s-1-0.447-1-1v-6.984
		c0-0.553,0.447-1,1-1h11.994c0.553,0,1,0.447,1,1v6.984C38.997,33.551,38.55,33.998,37.997,33.998z"/>
	<path fill="#545C66" d="M32,18.002c-0.553,0-1-0.447-1-1v-3c0-0.553,0.447-1,1-1s1,0.447,1,1v3C33,17.555,32.553,18.002,32,18.002z
		"/>
	<path fill="#F6BB42" d="M32,23.002c-0.553,0-1-0.447-1-1v-1c0-0.553,0.447-1,1-1s1,0.447,1,1v1C33,22.555,32.553,23.002,32,23.002z
		"/>
	<path fill="#656D78" d="M38.001,15.002H25.999c-0.553,0-1-0.447-1-1s0.447-1,1-1h12.002c0.553,0,1,0.447,1,1
		S38.554,15.002,38.001,15.002z"/>
	<path fill="#656D78" d="M38.001,13.002H26c-0.553,0-1-0.447-1-1s0.447-1,1-1h12.001c0.553,0,1,0.447,1,1
		S38.554,13.002,38.001,13.002z"/>
	<path fill="#656D78" d="M38.001,15.002c-0.553,0-1-0.447-1-1v-2c0-0.553,0.447-1,1-1s1,0.447,1,1v2
		C39.001,14.555,38.554,15.002,38.001,15.002z"/>
	<path fill="#656D78" d="M26,15.002c-0.553,0-1-0.447-1-1v-2c0-0.553,0.447-1,1-1s1,0.447,1,1v2C27,14.555,26.553,15.002,26,15.002z
		"/>
	<path fill="#E6E9ED" d="M22.001,63c-0.553,0-1-0.447-1-1V37c0-0.553,0.447-1,1-1s1,0.447,1,1v25C23.001,62.553,22.554,63,22.001,63
		z"/>
	<path fill="#E6E9ED" d="M42.001,63c-0.553,0-1-0.447-1-1V37c0-0.553,0.447-1,1-1s1,0.447,1,1v25C43.001,62.553,42.554,63,42.001,63
		z"/>
	<path fill="#E6E9ED" d="M22.002,38c-0.294,0-0.584-0.127-0.782-0.375c-0.345-0.432-0.274-1.061,0.156-1.406l9.999-8.002
		c0.433-0.346,1.062-0.273,1.405,0.156c0.346,0.432,0.275,1.061-0.155,1.406l-9.999,8.002C22.441,37.93,22.221,38,22.002,38z"/>
	<path fill="#E6E9ED" d="M42,38c-0.219,0-0.439-0.07-0.624-0.219l-10.001-8.002c-0.431-0.346-0.501-0.975-0.156-1.406
		c0.347-0.43,0.974-0.5,1.406-0.156l10.001,8.002c0.431,0.346,0.501,0.975,0.156,1.406C42.584,37.873,42.294,38,42,38z"/>
	<path fill="#FFFFFF" d="M30.01,47.51h-4c-0.276,0-0.5-0.225-0.5-0.5v-5c0-0.277,0.224-0.5,0.5-0.5h4c0.276,0,0.5,0.223,0.5,0.5v5
		C30.51,47.285,30.286,47.51,30.01,47.51z M26.51,46.51h3v-4h-3V46.51z"/>
	<path fill="#FFFFFF" d="M38,47.51h-4c-0.276,0-0.5-0.225-0.5-0.5v-5c0-0.277,0.224-0.5,0.5-0.5h4c0.276,0,0.5,0.223,0.5,0.5v5
		C38.5,47.285,38.276,47.51,38,47.51z M34.5,46.51h3v-4h-3V46.51z"/>
	<g>
		<path fill="#F5F7FA" d="M50.005,41.51h-4c-0.276,0-0.5,0.223-0.5,0.5v5c0,0.275,0.224,0.5,0.5,0.5h4c0.276,0,0.5-0.225,0.5-0.5v-5
			C50.505,41.732,50.281,41.51,50.005,41.51z M49.505,46.51h-3v-4h3V46.51z"/>
		<path fill="#F5F7FA" d="M57.995,41.51h-4c-0.276,0-0.5,0.223-0.5,0.5v5c0,0.275,0.224,0.5,0.5,0.5h4c0.276,0,0.5-0.225,0.5-0.5v-5
			C58.495,41.732,58.271,41.51,57.995,41.51z M57.495,46.51h-3v-4h3V46.51z"/>
		<path fill="#F5F7FA" d="M50.005,50.52h-4c-0.276,0-0.5,0.223-0.5,0.5v5c0,0.275,0.224,0.5,0.5,0.5h4c0.276,0,0.5-0.225,0.5-0.5v-5
			C50.505,50.742,50.281,50.52,50.005,50.52z M49.505,55.52h-3v-4h3V55.52z"/>
		<path fill="#F5F7FA" d="M57.995,50.52h-4c-0.276,0-0.5,0.223-0.5,0.5v5c0,0.275,0.224,0.5,0.5,0.5h4c0.276,0,0.5-0.225,0.5-0.5v-5
			C58.495,50.742,58.271,50.52,57.995,50.52z M57.495,55.52h-3v-4h3V55.52z"/>
	</g>
	<g>
		<path fill="#F5F7FA" d="M10.005,41.51h-4c-0.276,0-0.5,0.223-0.5,0.5v5c0,0.275,0.224,0.5,0.5,0.5h4c0.276,0,0.5-0.225,0.5-0.5v-5
			C10.505,41.732,10.281,41.51,10.005,41.51z M9.505,46.51h-3v-4h3V46.51z"/>
		<path fill="#F5F7FA" d="M17.995,41.51h-4c-0.276,0-0.5,0.223-0.5,0.5v5c0,0.275,0.224,0.5,0.5,0.5h4c0.276,0,0.5-0.225,0.5-0.5v-5
			C18.495,41.732,18.271,41.51,17.995,41.51z M17.495,46.51h-3v-4h3V46.51z"/>
		<path fill="#F5F7FA" d="M10.005,50.52h-4c-0.276,0-0.5,0.223-0.5,0.5v5c0,0.275,0.224,0.5,0.5,0.5h4c0.276,0,0.5-0.225,0.5-0.5v-5
			C10.505,50.742,10.281,50.52,10.005,50.52z M9.505,55.52h-3v-4h3V55.52z"/>
		<path fill="#F5F7FA" d="M17.995,50.52h-4c-0.276,0-0.5,0.223-0.5,0.5v5c0,0.275,0.224,0.5,0.5,0.5h4c0.276,0,0.5-0.225,0.5-0.5v-5
			C18.495,50.742,18.271,50.52,17.995,50.52z M17.495,55.52h-3v-4h3V55.52z"/>
	</g>
	<path fill="#545C66" d="M38.01,50.52H26c-0.276,0-0.5,0.223-0.5,0.5V62c0,0.275,0.224,0.5,0.5,0.5h12.01c0.276,0,0.5-0.225,0.5-0.5
		V51.02C38.51,50.742,38.286,50.52,38.01,50.52z"/>
	<path fill="#434A54" d="M31,50.52v10.479c0,0.553,0.447,1,1,1s1-0.447,1-1V50.52H31z"/>
	<path fill="#656D78" d="M63,63H1c-0.553,0-1-0.447-1-1s0.447-1,1-1h62c0.553,0,1,0.447,1,1S63.553,63,63,63z"/>
	<path fill="#5D9CEC" d="M32,34c1.11,0,2,0.9,2,2c0,1.109-0.89,2-2,2c-1.1,0-2-0.891-2-2C30,34.9,30.9,34,32,34z"/>
	<path fill="#FFFFFF" d="M32,38.5c-1.379,0-2.5-1.121-2.5-2.5s1.121-2.5,2.5-2.5s2.5,1.121,2.5,2.5S33.379,38.5,32,38.5z M32,34.5
		c-0.827,0-1.5,0.672-1.5,1.5c0,0.826,0.673,1.5,1.5,1.5c0.841,0,1.5-0.66,1.5-1.5C33.5,35.172,32.827,34.5,32,34.5z"/>
	<path fill="#FFCE54" d="M34,20.002c-0.553,0-1-0.447-1-1s-0.448-1-1-1s-1,0.447-1,1s-0.447,1-1,1s-1-0.447-1-1c0-1.654,1.346-3,3-3
		s3,1.346,3,3C35,19.555,34.553,20.002,34,20.002z"/>
	<path fill="#FFCE54" d="M30,22.002c-0.553,0-1-0.447-1-1v-2c0-0.553,0.447-1,1-1s1,0.447,1,1v2C31,21.555,30.553,22.002,30,22.002z
		"/>
	<path fill="#FFCE54" d="M34,22.002h-4c-0.553,0-1-0.447-1-1s0.447-1,1-1h4c0.553,0,1,0.447,1,1S34.553,22.002,34,22.002z"/>
	<path fill="#FFCE54" d="M34,22.002c-0.553,0-1-0.447-1-1v-2c0-0.553,0.447-1,1-1s1,0.447,1,1v2C35,21.555,34.553,22.002,34,22.002z
		"/>
</g>
</svg>
